<svg width="149" height="82" viewBox="0 0 149 82" fill="none" xmlns="http://www.w3.org/2000/svg">
<path fill-rule="evenodd" clip-rule="evenodd" d="M87.7217 0.719971H118.954L118.406 8.99998H96.0002V82H82.8577L63.6577 36.048L60.9697 82H32.1697L0.553711 0.719971H13.9937L35.4977 56.144L38.8257 0.719971H64.1697L85.5457 56.144L87.7217 0.719971Z" fill="#00AFF5"/>
<path d="M87.8113 0.414999C90.2613 0.333328 94.8347 0.292493 101.531 0.292493C108.31 0.292493 112.924 0.333328 115.374 0.414999C124.684 0.741661 131.625 3.02833 136.199 7.275C140.772 11.44 143.059 17.075 143.059 24.18C143.059 30.2233 141.507 35.3683 138.404 39.615C135.382 43.78 131.135 46.5158 125.664 47.8225C127.379 49.2108 129.135 51.13 130.931 53.58C132.728 55.9483 135.219 59.6642 138.404 64.7275C141.752 70.0358 145.141 75.7933 148.571 82H127.991L114.149 56.275C112.679 53.58 111.331 51.9058 110.106 51.2525C108.963 50.5175 107.207 50.15 104.839 50.15V82H87.8113V0.414999ZM112.434 36.5525C116.599 36.5525 119.865 35.4908 122.234 33.3675C124.684 31.2442 125.909 28.3858 125.909 24.7925C125.909 21.5258 124.847 19.035 122.724 17.32C120.6 15.605 117.497 14.7475 113.414 14.7475H104.839V36.5525H112.434Z" fill="#00AFF5"/>
</svg>
