<svg width="1024" height="1024" viewBox="0 0 1024 1024" fill="none" xmlns="http://www.w3.org/2000/svg">
<path opacity="0.34" d="M62.2959 574.368C62.2959 693.618 109.668 807.984 193.99 892.306C278.312 976.628 392.678 1024 511.928 1024C631.177 1024 745.543 976.628 829.865 892.306C914.188 807.984 961.559 693.618 961.559 574.368C961.559 455.119 914.188 340.753 829.865 256.431C745.543 172.108 631.177 124.737 511.928 124.737C392.678 124.737 278.312 172.108 193.99 256.431C109.668 340.753 62.2959 455.119 62.2959 574.368Z" fill="#31BDF5"/>
<path d="M250.706 574.368C250.704 608.674 257.459 642.644 270.586 674.338C283.712 706.033 302.953 734.832 327.21 759.09C351.467 783.349 380.265 802.592 411.959 815.72C443.653 828.849 477.622 835.606 511.928 835.606C546.233 835.606 580.203 828.849 611.896 815.72C643.59 802.592 672.388 783.349 696.645 759.09C720.902 734.832 740.143 706.033 753.269 674.338C766.396 642.644 773.151 608.674 773.149 574.368C773.151 540.063 766.396 506.093 753.269 474.398C740.143 442.703 720.902 413.905 696.645 389.646C672.388 365.388 643.59 346.145 611.896 333.016C580.203 319.888 546.233 313.131 511.928 313.131C477.622 313.131 443.653 319.888 411.959 333.016C380.265 346.145 351.467 365.388 327.21 389.646C302.953 413.905 283.712 442.703 270.586 474.398C257.459 506.093 250.704 540.063 250.706 574.368Z" fill="#31BDF5"/>
<path d="M511.927 835.735C460.291 835.735 409.815 820.423 366.881 791.736C323.947 763.048 290.484 722.274 270.724 674.568C250.964 626.863 245.794 574.369 255.867 523.725C265.941 473.081 290.806 426.562 327.318 390.049C363.83 353.537 410.35 328.672 460.994 318.598C511.638 308.525 564.131 313.695 611.837 333.455C659.542 353.215 700.317 386.678 729.004 429.612C757.692 472.546 773.004 523.022 773.004 574.658C773.004 608.943 766.251 642.893 753.13 674.568C740.01 706.243 720.779 735.024 696.536 759.267C672.293 783.511 643.512 802.741 611.837 815.862C580.162 828.982 546.212 835.735 511.927 835.735ZM511.927 342.59C466.029 342.59 421.16 356.201 382.997 381.701C344.834 407.201 315.089 443.445 297.524 485.85C279.96 528.255 275.364 574.916 284.318 619.933C293.273 664.949 315.375 706.3 347.83 738.755C380.286 771.211 421.636 793.313 466.653 802.267C511.67 811.222 558.331 806.626 600.736 789.061C643.141 771.497 679.385 741.752 704.885 703.588C730.385 665.425 743.995 620.557 743.995 574.658C744.072 544.134 738.125 513.894 726.497 485.672C714.869 457.449 697.787 431.797 676.23 410.186C654.672 388.575 629.064 371.429 600.87 359.731C572.676 348.032 542.452 342.01 511.927 342.01V342.59Z" fill="white"/>
</svg>
