<svg xmlns="http://www.w3.org/2000/svg" version="1.1" xmlns:xlink="http://www.w3.org/1999/xlink" width="512"
    height="512" x="0" y="0" viewBox="0 0 512 512" style="enable-background:new 0 0 512 512" xml:space="preserve"
    class="">
    <g>
        <g data-name="69">
            <rect width="512" height="512" fill="#00aff5" rx="150" opacity="1" data-original="#00aff5"></rect>
            <g fill="#fff">
                <path
                    d="M328.53 314.28 281 266.75v129.51c0 13.81-11.19 25-25 25s-25-11.19-25-25V266.75l-47.53 47.53c-9.76 9.76-25.59 9.76-35.36 0-9.76-9.76-9.76-25.59 0-35.36l90.21-90.21c9.76-9.76 25.59-9.76 35.36 0l90.21 90.21c9.76 9.76 9.76 25.59 0 35.36-9.76 9.76-25.59 9.76-35.36 0z"
                    fill="#ffffff" opacity="1" data-original="#ffffff"></path>
                <path
                    d="M396 235.73c13.81 0 25-11.19 25-25v-70c0-27.61-22.39-50-50-50H141c-27.61 0-50 22.39-50 50v70c0 13.81 11.19 25 25 25s25-11.19 25-25v-57.5c0-6.9 5.6-12.5 12.5-12.5h205c6.9 0 12.5 5.6 12.5 12.5v57.5c0 13.81 11.19 25 25 25z"
                    fill="#ffffff" opacity="1" data-original="#ffffff"></path>
            </g>
        </g>
    </g>
</svg>