<svg xmlns="http://www.w3.org/2000/svg" version="1.1" xmlns:xlink="http://www.w3.org/1999/xlink" width="512"
    height="512" x="0" y="0" viewBox="0 0 512 512" style="enable-background:new 0 0 512 512" xml:space="preserve"
    class="">
    <g>
        <path fill="#65687f"
            d="M191.348 377.629h-31.91c-7.68 0-13.903-6.227-13.903-13.902v-29.262h59.715v29.262c0 7.675-6.223 13.902-13.902 13.902zM352.563 377.629h-31.91c-7.68 0-13.903-6.227-13.903-13.902v-29.262h59.715v29.262c0 7.675-6.223 13.902-13.903 13.902zm0 0"
            opacity="1" data-original="#65687f"></path>
        <path fill="#d8edf7"
            d="m159.766 212.938 11.175-61.606c2.329-12.816 13.493-22.137 26.52-22.137h117.078c13.027 0 24.191 9.32 26.52 22.137l11.175 61.606"
            opacity="1" data-original="#d8edf7"></path>
        <path fill="#1a94ba"
            d="M352.227 220.777a7.84 7.84 0 0 1-7.7-6.441l-11.18-61.602a19.106 19.106 0 0 0-18.808-15.703H197.461a19.109 19.109 0 0 0-18.809 15.703l-11.18 61.602a7.833 7.833 0 0 1-9.109 6.312c-4.258-.77-7.082-4.851-6.312-9.109l11.18-61.601c3.003-16.56 17.398-28.579 34.23-28.579h117.078c16.828 0 31.223 12.02 34.227 28.579l11.18 61.601a7.835 7.835 0 0 1-6.313 9.11 7.816 7.816 0 0 1-1.406.128zm0 0"
            opacity="1" data-original="#1a94ba"></path>
        <path fill="#31bdf5"
            d="M357.234 212.938H154.766c-23.477 0-42.512 19.03-42.512 42.511v36.508c0 23.477 19.031 42.512 42.512 42.512h202.468c23.477 0 42.512-19.035 42.512-42.512v-36.508c0-23.48-19.031-42.511-42.512-42.511zm0 0"
            opacity="1" data-original="#31bdf5"></path>
        <path fill="#ff5a73"
            d="M256 0C114.613 0 0 114.613 0 256s114.613 256 256 256 256-114.613 256-256S397.387 0 256 0zM46.047 256c0-71.156 35.406-134.031 89.55-172.004l200.419 366.152c-24.664 10.176-51.68 15.801-80.016 15.801C140.047 465.953 46.047 371.953 46.047 256zm330.348 172.008L175.98 61.852c24.66-10.176 51.684-15.805 80.02-15.805 115.953 0 209.941 94 209.941 209.953 0 71.156-35.402 134.035-89.546 172.008zm0 0"
            opacity="1" data-original="#ff5a73"></path>
        <path fill="#e6e6e6"
            d="M185.18 274.21c0 13.54-10.973 24.513-24.508 24.513-13.54 0-24.512-10.973-24.512-24.512 0-13.535 10.973-24.508 24.512-24.508 13.535 0 24.508 10.973 24.508 24.508zM375.84 274.21c0 13.54-10.973 24.513-24.512 24.513-13.535 0-24.508-10.973-24.508-24.512 0-13.535 10.973-24.508 24.508-24.508 13.54 0 24.512 10.973 24.512 24.508zm0 0"
            opacity="1" data-original="#e6e6e6"></path>
        <g fill="#1a94ba">
            <path
                d="M160.672 306.559c-17.836 0-32.348-14.508-32.348-32.344 0-17.836 14.512-32.348 32.348-32.348s32.348 14.512 32.348 32.348-14.512 32.344-32.348 32.344zm0-49.02c-9.195 0-16.676 7.48-16.676 16.676 0 9.191 7.48 16.672 16.676 16.672 9.191 0 16.672-7.48 16.672-16.672 0-9.195-7.48-16.676-16.672-16.676zM351.328 306.559c-17.836 0-32.348-14.508-32.348-32.344 0-17.836 14.512-32.348 32.348-32.348s32.348 14.512 32.348 32.348-14.512 32.344-32.348 32.344zm0-49.02c-9.195 0-16.672 7.48-16.672 16.676 0 9.191 7.477 16.672 16.672 16.672S368 283.407 368 274.215c0-9.195-7.477-16.676-16.672-16.676zm0 0"
                fill="#1a94ba" opacity="1" data-original="#1a94ba"></path>
        </g>
    </g>
</svg>