<svg width="361" height="201" viewBox="0 0 361 201" fill="none" xmlns="http://www.w3.org/2000/svg">
<path d="M356.929 197.573H145.507C150.622 196.767 154.618 192.581 155.146 187.366C155.186 186.979 155.205 186.586 155.205 186.188V186.035H241.896C243.716 186.035 245.127 184.55 245.128 182.785C245.128 182.639 245.119 182.492 245.099 182.343C245.023 181.77 244.971 181.19 244.941 180.604C255.987 180.409 275.039 180.014 285.606 179.791C285.584 180.173 285.555 180.552 285.516 180.928C285.515 180.938 285.514 180.947 285.513 180.956C285.513 180.957 285.513 180.957 285.513 180.957C285.51 180.984 285.508 181.011 285.504 181.037C285.488 181.189 285.48 181.339 285.48 181.487C285.476 183.715 287.267 185.58 289.552 185.58H305.296C308.159 185.58 310.48 183.261 310.48 180.401V179.548V176.331C310.48 175.471 309.968 174.728 309.229 174.393V166.163C309.229 164.343 309.112 162.522 308.839 160.721C307.235 150.159 302.053 147.94 286.72 144.877C269.801 141.496 248.323 130.473 248.323 130.473C248.323 130.473 211.689 112.542 202.715 110.484C197.364 109.257 187.355 108.97 176.218 108.97C169.368 108.97 162.092 109.08 155.205 109.143V46.4678H159.871V73.4976H166.106V82.7569H170.407V101.693H175.567V40.9613H178.363V31.4518H202.873V40.9613H205.669V86.0287L213.84 85.8137V56.9792H237.061L238.104 111.181L241.576 110.966V92.6708H249.102V78.279H253.617V68.6116H271.248V78.279H275.763V92.6708H283.289V126.443L289.739 126.228V92.7327H311.302V124.246V129.365H324.471V113.468H340.386V149.171H356.929V197.573Z" fill="#E6EBF7"/>
<path d="M76.1028 196.51C76.1028 196.51 68.0406 150.034 64.7805 145.234C62.3058 141.591 59.5 146.09 57.4284 150.589C55.7285 154.281 54.5228 157.972 54.3997 157.166C51.8195 140.272 52.3593 118.963 40.2913 115.734C33.4313 113.899 40.7449 131.648 39.8929 136.221C39.041 140.794 27.6291 124.467 20.6005 115.829C13.5721 107.191 9.26836 111.957 13.3426 122.437C17.2822 132.569 31.5541 144.443 28.3593 145.46C26.9561 145.907 22.7128 143.433 18.1666 140.96C12.3625 137.803 6.06444 134.645 4.55056 137.562C1.2404 143.942 28.8365 155.201 26.0677 156.472C24.9716 156.975 22.2495 156.342 19.3604 155.71C14.951 154.746 10.1528 153.782 10.1528 156.851C10.1528 161.932 28.3184 163.203 27.8458 165.4C27.4831 167.086 24.7263 165.925 21.8327 164.764C18.6242 163.477 15.2473 162.19 14.7787 164.785C13.867 169.834 30.2692 170.216 29.6962 174.166C29.367 176.434 25.2359 174.059 24.4886 177.179C22.7847 184.293 48.6309 194.261 48.6309 194.261L76.1028 196.51Z" fill="#0083B8"/>
<path d="M88.9649 197.712C85.6847 193.449 66.3092 169.604 54.5809 165.798C41.6349 161.597 53.8364 178.283 53.8364 178.283C53.8364 178.283 30.8706 153.11 22.4429 155.379C14.7176 157.459 22.4429 173.063 22.4429 173.063C22.4429 173.063 13.7419 164.423 3.19015 164.423C-7.0792 164.423 10.6476 196.072 11.5887 197.712H88.9649Z" fill="#9AD6EE"/>
<path d="M104.409 196.77C106.952 194.592 108.489 192.284 108.095 189.987C107.393 185.889 101.571 188.522 101.35 185.564C100.965 180.417 123.188 181.622 122.454 175.022C122.075 171.617 117.347 172.948 112.865 174.28C108.854 175.471 105.041 176.663 104.718 174.461C104.296 171.581 128.993 171.825 129.495 165.278C129.8 161.288 123.098 162.082 116.995 162.876C113.085 163.385 109.419 163.892 108.006 163.142C104.386 161.218 142.825 149.566 138.977 141.005C137.205 137.062 128.262 140.553 120.053 144.046C113.724 146.739 107.83 149.43 105.994 148.717C101.772 147.076 122.25 133.254 128.578 120.605C135.125 107.524 129.775 100.938 119.415 111.341C109.055 121.743 92.0055 141.6 91.3049 135.619C90.6042 129.639 102.25 107.525 92.7895 109.181C76.147 112.093 74.7729 139.604 69.6141 161.105C69.3656 162.14 68.0794 157.164 66.1162 152.188C63.7612 146.219 60.4319 140.25 56.7512 144.657C53.2796 148.813 59.718 179.418 63.7313 196.77H104.409Z" fill="#96D9C9"/>
<path d="M193.052 65.4709C193.052 70.3374 189.105 74.2809 184.233 74.2809C179.363 74.2809 175.416 70.3374 175.416 65.4709C175.416 60.6057 179.363 56.661 184.233 56.661C189.105 56.661 193.052 60.6057 193.052 65.4709Z" fill="white"/>
<path d="M261.018 54.7543C260.739 56.9476 263.027 58.6892 265.061 58.552C267.31 58.4002 269.218 56.5578 269.546 54.3498C269.902 51.9609 268.465 50.0493 266.242 49.8744C264.078 49.7044 262.693 51.6294 263.318 53.5713C263.765 54.9632 265.038 55.4817 265.679 55.098C266.178 54.7992 266.148 54.0438 265.544 53.9102C265.301 53.8568 265.051 53.9916 264.923 54.1774C264.394 53.9673 263.889 53.0054 264.231 51.9646C264.669 50.6371 266.349 50.5618 267.392 51.1812C268.72 51.9694 268.929 53.6661 268.442 55.019C267.93 56.44 266.535 57.5585 265.015 57.6654C263.292 57.7881 261.778 56.4691 261.639 54.7555C261.607 54.351 261.068 54.3608 261.018 54.7543Z" fill="#00AFF5"/>
<path d="M299.573 47.4126L301.017 44.1566L299.151 41.1228C298.939 40.7778 299.216 40.3382 299.619 40.3795L303.165 40.7463L305.476 38.0343C305.74 37.7258 306.244 37.8533 306.329 38.2493L307.076 41.7312L310.371 43.0902C310.746 43.2457 310.782 43.7631 310.43 43.9659L307.346 45.7524L307.07 49.3036C307.04 49.708 306.557 49.9011 306.254 49.6303L303.602 47.2511L300.136 48.0867C299.742 48.1826 299.409 47.7843 299.573 47.4126Z" fill="#00AFF5"/>
<path d="M164.35 24.3531L165.433 21.9107L164.032 19.6348C163.873 19.3761 164.081 19.047 164.384 19.0773L167.044 19.3518L168.777 17.3187C168.975 17.0868 169.352 17.1827 169.417 17.4803L169.977 20.0914L172.449 21.1116C172.731 21.227 172.756 21.6156 172.494 21.7686L170.18 23.1082L169.973 25.7716C169.949 26.0752 169.588 26.2197 169.362 26.0157L167.371 24.2328L164.772 24.8595C164.476 24.93 164.226 24.6312 164.35 24.3531Z" fill="#00AFF5"/>
<path d="M323.826 75.5974L325.359 72.8138L330.115 74.7837L332.86 70.9908L336.661 71.8835L337.113 69.9622L332.031 68.7671L329.429 72.362L324.481 70.3119L322.174 74.5007L323.826 75.5974Z" fill="#50BFA5"/>
<path d="M199.074 15.5371L196.373 13.8586L198.598 9.21926L194.952 6.27898L196.047 2.53468L194.151 1.98088L192.685 6.98704L196.14 9.7743L193.826 14.6007L197.89 17.1268L199.074 15.5371Z" fill="#00AFF5"/>
<path d="M241.83 31.9558L243.617 29.0434L240.775 27.8921L238.987 30.8044L241.83 31.9558ZM234.587 34.5548L236.585 31.3109L234.981 30.6611C234.629 30.519 234.459 30.1182 234.603 29.7672C234.745 29.4163 235.145 29.2474 235.496 29.3895L237.348 30.1401L239.135 27.2277L237.419 26.5331C237.068 26.3897 236.899 25.9902 237.041 25.6392C237.185 25.2882 237.585 25.1194 237.936 25.2615L239.896 26.0558L241.972 22.7207C242.148 22.4366 242.503 22.3212 242.812 22.4475L243.111 22.5689C243.505 22.728 243.661 23.2005 243.439 23.5624L241.509 26.7092L244.351 27.8605L246.426 24.5255C246.602 24.2425 246.957 24.1271 247.267 24.2522L247.594 24.3846C247.987 24.5437 248.143 25.0174 247.921 25.3781L245.991 28.5248L247.596 29.1758C247.947 29.3179 248.117 29.7175 247.974 30.0684C247.832 30.4194 247.432 30.5883 247.08 30.4462L245.229 29.6968L243.47 32.6201L245.184 33.3148C245.535 33.4569 245.704 33.8564 245.562 34.2074C245.42 34.5584 245.02 34.7285 244.668 34.5851L242.707 33.7909L240.587 37.2315C240.412 37.5169 240.056 37.6335 239.745 37.5072L239.395 37.3651C239.002 37.206 238.846 36.7312 239.069 36.3705L241.067 33.1265L238.225 31.9752L236.105 35.4159C235.93 35.7 235.574 35.8166 235.263 35.6915L234.913 35.5494C234.52 35.3904 234.364 34.9155 234.587 34.5548Z" fill="#50BFA5"/>
<path d="M147.622 0.684967L147.596 0.677689C147.367 0.593887 147.132 0.519775 146.894 0.451767C146.814 0.428696 146.733 0.404419 146.651 0.382553C146.566 0.359482 146.478 0.338821 146.392 0.318176C146.304 0.297531 146.215 0.276886 146.127 0.257446C146.043 0.239227 145.959 0.22345 145.875 0.207657C145.78 0.189438 145.685 0.171234 145.591 0.155457C145.509 0.14209 145.428 0.129929 145.346 0.117783C145.244 0.10321 145.141 0.0910797 145.036 0.0789337C144.961 0.0704193 144.885 0.0607147 144.81 0.053421C144.691 0.0424957 144.572 0.0339813 144.453 0.0266876C144.389 0.0218353 144.326 0.016983 144.263 0.0133362C144.079 0.00483704 143.895 -1.52588e-05 143.709 -1.52588e-05H58.4526C58.2542 -1.52588e-05 58.057 0.00483704 57.861 0.0145569C57.4691 0.035202 57.0825 0.0740814 56.7019 0.13237C56.5116 0.161514 56.3228 0.195526 56.1358 0.23439C51.2712 1.23149 47.526 5.30975 47.0156 10.3463C46.9764 10.7337 46.9563 11.126 46.9563 11.5243V153.742V186.188C46.9563 191.176 50.1174 195.422 54.5403 197.027C54.5599 197.033 54.5798 197.04 54.5994 197.047C54.8187 197.126 55.0416 197.196 55.2668 197.261C55.3481 197.284 55.429 197.308 55.5109 197.33C55.5967 197.353 55.6835 197.373 55.7701 197.394C55.8581 197.415 55.9461 197.435 56.0349 197.455C56.1185 197.473 56.2027 197.489 56.2871 197.506C56.3816 197.523 56.4765 197.541 56.5718 197.556C56.6528 197.57 56.7337 197.582 56.8152 197.595C56.9182 197.609 57.0216 197.621 57.1256 197.633C57.2009 197.642 57.2763 197.652 57.3523 197.659C57.4708 197.67 57.5902 197.678 57.7098 197.686C57.7727 197.689 57.8351 197.695 57.8984 197.699C58.0822 197.707 58.2667 197.712 58.4526 197.712H143.709C144.106 197.712 144.498 197.692 144.884 197.653C150.295 197.103 154.596 192.79 155.146 187.366C155.186 186.979 155.205 186.586 155.205 186.188V43.9707V11.5243C155.205 6.53639 152.045 2.29053 147.622 0.684967Z" fill="#0083B8"/>
<path d="M52.5295 182.005H149.963V15.7071H52.5295V182.005Z" fill="#EAFCFC"/>
<path d="M136.326 119.639C131.006 126.125 125.379 132.952 120.46 138.899L91.9758 123.091L121.455 110.144L136.326 119.639ZM128.588 146.723L122.289 166.264L70.3846 147.31L71.3176 132.164L88.6439 124.555L128.588 146.723ZM69.9824 110.885V92.8141L97.663 92.2676L114.496 106.874L85.6126 119.56L69.9824 110.885ZM58.057 90.1531L73.313 70.8062L96.7429 71.7778V89.3892L58.057 90.1531ZM76.638 39.4152L111.232 54.2393V66.581L76.638 65.1479V39.4152ZM115.508 72.5551L117.103 105.302L99.6413 90.1495V71.8969L115.508 72.5551ZM149.963 85.7591L121.842 83.454L121.04 66.9879L114.13 66.7012V55.4817L149.963 70.8366V67.685L138.077 62.5914L135.826 15.7071H132.925L135.114 61.3222L114.13 52.3314V52.0107H113.383L108.609 49.9643L108.587 15.7071H105.688L105.709 48.7219L76.638 36.2648V15.7071H70.841V33.7812L52.5295 25.9343V29.0847L70.841 36.9316V55.2498L52.5295 46.7107V49.906L70.841 58.4451V69.2614L54.3091 90.2272L52.5295 90.2624V93.159L67.084 92.8712V112.588L82.2807 121.023L66.3376 128.025L52.5295 118.181V121.738L65.5693 131.034L65.5802 131.02L62.4395 182.005H68.2474L70.1989 150.325L94.6959 159.271L91.8919 182.005H94.8122L97.4904 160.291L121.4 169.022L117.214 182.005H120.26L124.124 170.017L149.963 179.454V176.37L125.013 167.259L132.076 145.347L123.036 140.329C126.178 136.529 132.961 128.313 139.73 120.053C144.042 114.793 147.378 110.701 149.963 107.508V102.898C146.758 106.875 142.621 111.955 138.175 117.383L123.023 107.709L121.983 86.3712L149.963 88.6642V85.7591Z" fill="white"/>
<path d="M122.894 169.07L66.0393 148.772L67.0349 130.27L116.906 108.247L97.18 91.3554V70.0058L72.7043 69.2699V49.8149H74.7745V67.2635L99.2501 67.9983V90.4045L120.747 108.813L69.0341 131.649L68.1895 147.342L123.591 167.123L122.894 169.07Z" fill="#C0DDE3"/>
<path d="M71.0986 40.7329C71.1177 39.2148 72.3647 38.0003 73.8839 38.0197C75.4032 38.0392 76.6192 39.284 76.6001 40.8021C76.5809 42.3202 75.3339 43.5347 73.8146 43.5153C72.2954 43.4971 71.0794 42.251 71.0986 40.7329ZM68.3843 42.9166L73.6895 53.4365L79.2583 43.0526C80.907 39.2439 78.2605 34.8997 74.1104 34.7272C74.049 34.7248 73.9874 34.7224 73.9255 34.7224C73.8637 34.7212 73.802 34.7212 73.7406 34.7224C69.5875 34.7904 66.8321 39.0666 68.3843 42.9166Z" fill="#183658"/>
<path d="M120.455 156.367C120.475 154.849 121.722 153.635 123.242 153.653C124.76 153.672 125.977 154.918 125.957 156.437C125.938 157.953 124.691 159.169 123.171 159.15C121.653 159.13 120.436 157.884 120.455 156.367ZM117.742 158.55L123.047 169.07L128.615 158.687C130.265 154.878 127.618 150.533 123.468 150.36C123.406 150.358 123.345 150.357 123.283 150.356C123.221 150.354 123.159 150.354 123.098 150.356C118.944 150.424 116.189 154.701 117.742 158.55Z" fill="#184655"/>
<path d="M121.83 10.4811H80.4898C80.4316 10.4811 80.3843 10.4338 80.3843 10.3755V8.50272C80.3843 8.44443 80.4316 8.39707 80.4898 8.39707H121.83C121.889 8.39707 121.936 8.44443 121.936 8.50272V10.3755C121.936 10.4338 121.889 10.4811 121.83 10.4811Z" fill="white"/>
<path d="M96.2561 194.799H105.794V185.237H96.2561V194.799Z" fill="#F44336"/>
<path d="M139.556 182.005H120.26L121.442 178.334C128.766 179.51 135.807 180.616 139.638 181.154C139.617 181.439 139.589 181.724 139.556 182.005ZM117.214 182.005H94.8122L95.3566 177.592L96.2571 177.829C96.3558 177.846 96.454 177.854 96.5505 177.854C97.411 177.854 98.1559 177.203 98.2531 176.317C98.2545 176.303 98.256 176.289 98.2576 176.275C98.2584 176.267 98.2594 176.26 98.2604 176.251C98.2607 176.246 98.2612 176.243 98.2617 176.239C98.3078 175.832 98.3646 175.428 98.4314 175.028H101.141C105.449 175.737 111.958 176.805 118.548 177.868L117.214 182.005ZM91.8919 182.005H68.2474L68.6772 175.028H85.6448L92.5285 176.845L91.8919 182.005ZM62.4395 182.005H52.5295V175.028H62.8694L62.4395 182.005Z" fill="#C7EEF1"/>
<path d="M120.26 182.005H117.214L118.548 177.868C119.514 178.024 120.481 178.18 121.442 178.334L120.26 182.005ZM94.8122 182.005H91.8919L92.5284 176.845L95.3566 177.592L94.8122 182.005ZM68.2473 182.005H62.4395L62.8693 175.028H68.6772L68.2473 182.005Z" fill="#D8F0F3"/>
<path d="M149.963 24.5316H136.249L135.826 15.707H149.963V24.5316ZM133.348 24.5316H108.592L108.587 15.707H132.925L133.348 24.5316ZM105.694 24.5316H76.638V15.707H105.688L105.694 24.5316ZM70.841 24.5316H52.5295V15.707H70.841V24.5316Z" fill="#C7EEF1"/>
<path d="M136.249 24.5316H133.348L132.925 15.707H135.826L136.249 24.5316ZM108.592 24.5316H105.694L105.688 15.707H108.587L108.592 24.5316ZM76.638 24.5316H70.8411V15.707H76.638V24.5316Z" fill="#D8F0F3"/>
<path d="M283.273 91.1539H247.283C246.04 91.1539 245.032 92.1643 245.032 93.4104V108.299C245.032 109.545 246.04 110.555 247.283 110.555H275.618C276.765 112.16 278.843 115.032 279.027 115.032C279.198 115.032 278.868 112.319 278.635 110.555H283.273C284.516 110.555 285.524 109.545 285.524 108.299V93.4104C285.524 92.1643 284.516 91.1539 283.273 91.1539Z" fill="#00AFF5"/>
<path d="M260.335 97.4364H249.97C249.794 97.4364 249.651 97.2943 249.651 97.1182V96.7721C249.651 96.596 249.794 96.4539 249.97 96.4539H260.335C260.511 96.4539 260.654 96.596 260.654 96.7721V97.1182C260.654 97.2943 260.511 97.4364 260.335 97.4364Z" fill="white"/>
<path d="M256.764 101.727H249.97C249.794 101.727 249.651 101.585 249.651 101.409V101.063C249.651 100.887 249.794 100.745 249.97 100.745H256.764C256.941 100.745 257.083 100.887 257.083 101.063V101.409C257.083 101.585 256.941 101.727 256.764 101.727Z" fill="white"/>
<path d="M266.808 101.727H259.391C259.215 101.727 259.073 101.585 259.073 101.409V101.063C259.073 100.887 259.215 100.745 259.391 100.745H266.808C266.984 100.745 267.127 100.887 267.127 101.063V101.409C267.127 101.585 266.984 101.727 266.808 101.727Z" fill="white"/>
<path d="M280.749 101.727H269.754C269.577 101.727 269.435 101.585 269.435 101.409V101.063C269.435 100.887 269.577 100.745 269.754 100.745H280.749C280.925 100.745 281.068 100.887 281.068 101.063V101.409C281.068 101.585 280.925 101.727 280.749 101.727Z" fill="white"/>
<path d="M280.75 97.4364H263.34C263.164 97.4364 263.021 97.2943 263.021 97.1182V96.7721C263.021 96.596 263.164 96.4539 263.34 96.4539H280.75C280.925 96.4539 281.068 96.596 281.068 96.7721V97.1182C281.068 97.2943 280.925 97.4364 280.75 97.4364Z" fill="white"/>
<path d="M264.072 106.101H249.97C249.794 106.101 249.651 105.957 249.651 105.781V105.435C249.651 105.26 249.794 105.117 249.97 105.117H264.072C264.248 105.117 264.39 105.26 264.39 105.435V105.781C264.39 105.957 264.248 106.101 264.072 106.101Z" fill="white"/>
<path d="M280.75 106.101H266.643C266.467 106.101 266.323 105.957 266.323 105.781V105.435C266.323 105.26 266.467 105.117 266.643 105.117H280.75C280.925 105.117 281.068 105.26 281.068 105.435V105.781C281.068 105.957 280.925 106.101 280.75 106.101Z" fill="white"/>
<path d="M96.0442 174.188C96.0442 174.188 142.055 181.815 142.607 181.484C143.159 181.154 149.117 155.47 149.117 155.47C149.117 155.47 111.069 148.636 110.453 148.636C109.836 148.636 101.561 155.249 101.451 155.691C101.341 156.132 96.0442 174.188 96.0442 174.188Z" fill="#183658"/>
<path d="M236.396 180.713C237.498 180.822 293.22 179.63 293.22 179.63L289.027 166.824C289.027 166.824 281.303 155.155 277.221 155.368C275.68 155.448 271.261 154.938 266.131 154.427C257.671 153.585 247.277 152.743 244.668 154.55C240.478 157.454 236.726 155.139 234.74 162.084C232.755 169.028 231.205 169.806 232.752 173.992C234.299 178.177 236.396 180.713 236.396 180.713Z" fill="#183658"/>
<path d="M100.312 178.759C100.312 189.227 108.803 197.712 119.277 197.712C129.752 197.712 138.243 189.227 138.243 178.759C138.243 168.291 129.752 159.806 119.277 159.806C108.803 159.806 100.312 168.291 100.312 178.759Z" fill="#1A1A1A"/>
<path d="M106.083 178.759C106.083 186.042 111.991 191.946 119.277 191.946C126.565 191.946 132.474 186.042 132.474 178.759C132.474 171.476 126.565 165.572 119.277 165.572C111.991 165.572 106.083 171.476 106.083 178.759Z" fill="#9E9DA2"/>
<path d="M110.453 178.759C110.453 183.63 114.404 187.579 119.277 187.579C124.152 187.579 128.103 183.63 128.103 178.759C128.103 173.889 124.152 169.941 119.277 169.941C114.404 169.941 110.453 173.889 110.453 178.759Z" fill="#D8D9DD"/>
<path d="M246.333 178.759C246.333 189.227 254.823 197.712 265.297 197.712C275.771 197.712 284.263 189.227 284.263 178.759C284.263 168.291 275.771 159.806 265.297 159.806C254.823 159.806 246.333 168.291 246.333 178.759Z" fill="#1A1A1A"/>
<path d="M252.102 178.759C252.102 186.042 258.01 191.946 265.297 191.946C272.585 191.946 278.493 186.042 278.493 178.759C278.493 171.476 272.585 165.572 265.297 165.572C258.01 165.572 252.102 171.476 252.102 178.759Z" fill="#9E9DA2"/>
<path d="M256.473 178.759C256.473 183.63 260.423 187.579 265.297 187.579C270.172 187.579 274.123 183.63 274.123 178.759C274.123 173.889 270.172 169.941 265.297 169.941C260.423 169.941 256.473 173.889 256.473 178.759Z" fill="#D8D9DD"/>
<path d="M308.839 160.721C307.235 150.159 302.053 147.94 286.72 144.877C269.801 141.496 248.323 130.473 248.323 130.473C248.323 130.473 211.689 112.542 202.715 110.484C193.741 108.426 171.673 109.014 153.136 109.161C134.6 109.308 123.712 114.453 114.297 121.802C104.881 129.151 88.5513 134.735 88.5513 134.735L85.5846 135.264C82.534 135.808 80.3127 138.46 80.3127 141.555V167.767C80.3127 170.735 82.3136 173.33 85.1859 174.088L95.9072 176.917C96.7804 177.067 97.5922 176.448 97.6885 175.567C98.8628 164.845 108.142 156.695 119.207 156.709C130.972 156.722 140.62 166.38 140.612 178.135C140.612 179.469 140.488 180.776 140.253 182.044C140.009 183.353 141.016 184.559 142.348 184.559H241.019C242.937 184.559 244.426 182.876 244.172 180.978C244.049 180.065 243.985 179.133 243.983 178.186C243.947 166.576 253.344 156.952 264.963 156.712C277.008 156.464 286.849 166.144 286.849 178.12C286.849 178.913 286.805 179.697 286.721 180.467C286.483 182.649 288.172 184.559 290.369 184.559H304.559C307.138 184.559 309.229 182.47 309.229 179.893V166.163C309.229 164.343 309.112 162.522 308.839 160.721Z" fill="#00AFF5"/>
<path d="M80.938 144.656H92.6239C93.6249 144.656 94.303 145.675 93.9161 146.597L92.6034 149.726C91.3518 152.709 88.4304 154.65 85.1928 154.65H80.938C80.1051 154.65 79.4299 153.976 79.4299 153.144V146.162C79.4299 145.33 80.1051 144.656 80.938 144.656Z" fill="#0075A4"/>
<path d="M290.251 149.507C296.686 150.49 304.098 156.579 304.098 156.579C305.869 158.481 304.407 161.569 301.811 161.405L289.263 160.613C286.657 160.448 284.434 158.668 283.707 156.161C282.487 151.951 283.525 148.477 290.251 149.507Z" fill="#F3FCFF"/>
<path d="M80.3808 168.742C79.5762 168.722 79.0061 169.53 79.3028 170.277C80.142 172.39 81.9422 174.052 84.2437 174.659L96.2569 177.829C97.2353 177.998 98.145 177.303 98.2529 176.317C98.4754 174.284 98.9609 172.337 99.6699 170.5C99.9101 169.879 99.4571 169.207 98.7899 169.191L80.3808 168.742Z" fill="#0093CD"/>
<path d="M286.95 173.682C286.037 173.659 285.332 174.46 285.449 175.364C285.578 176.369 285.646 177.394 285.646 178.434C285.646 179.314 285.598 180.182 285.504 181.037C285.239 183.458 287.115 185.58 289.552 185.58H305.297C308.16 185.58 310.48 183.261 310.48 180.401V176.331C310.48 175.176 309.558 174.234 308.403 174.205L286.95 173.682Z" fill="#0093CD"/>
<path d="M242.326 173.967L241.333 173.942C241.908 157.028 246.711 139.984 247.519 137.22C244.718 135.689 225.847 125.424 213.034 119.495C202.115 114.443 190.153 113.921 185.673 113.921C185.086 113.921 184.626 113.929 184.315 113.938V172.552L183.323 172.527V113.946C182.061 113.922 178.459 113.862 173.701 113.862C161.598 113.862 142.024 114.247 134.535 116.579C124.107 119.827 110.153 134.556 108.445 136.39L112.128 153.655C113.032 153.61 113.91 153.59 114.761 153.59C127.786 153.59 134.62 158.587 138.105 162.96C140.687 166.201 141.827 169.495 142.319 171.528L141.279 171.502C140.769 169.541 139.659 166.489 137.296 163.538C132.581 157.652 124.82 154.582 114.737 154.582C113.766 154.582 112.772 154.611 111.758 154.668L111.334 154.693L107.367 136.096L107.539 135.908C108.161 135.225 122.914 119.159 134.24 115.632C141.853 113.261 161.08 112.859 173.246 112.859C179.049 112.859 183.245 112.952 183.813 112.964C183.938 112.958 184.59 112.929 185.659 112.929C190.221 112.929 202.359 113.463 213.451 118.595C227.283 124.996 248.14 136.427 248.349 136.542L248.703 136.736L248.584 137.121C248.527 137.312 242.947 155.724 242.326 173.967Z" fill="#016A94"/>
<path d="M98.4315 175.028H98.4309C98.4551 174.884 98.4807 174.739 98.5076 174.594H98.5085C98.4815 174.739 98.4558 174.884 98.4315 175.028Z" fill="#E9D7A0"/>
<path d="M98.2576 176.275C98.2584 176.267 98.2594 176.26 98.2604 176.251C98.2594 176.26 98.2584 176.267 98.2576 176.275ZM98.2617 176.239C98.3077 175.832 98.3642 175.428 98.4308 175.028H98.4314C98.3645 175.428 98.3078 175.832 98.2617 176.239Z" fill="#C6CB99"/>
<path d="M98.5084 174.594H98.5076C98.5445 174.397 98.584 174.199 98.6261 174.003H98.6271C98.5851 174.199 98.5455 174.397 98.5084 174.594Z" fill="#016A94"/>
<path d="M96.5505 177.854C96.454 177.854 96.3558 177.846 96.2571 177.829L95.3566 177.592L92.5284 176.845L84.2439 174.659C81.9423 174.052 80.1422 172.39 79.303 170.277L98.626 174.003C98.584 174.199 98.5445 174.397 98.5075 174.594C98.4806 174.739 98.455 174.884 98.4308 175.028C98.3642 175.428 98.3077 175.832 98.2617 176.239C98.2612 176.243 98.2607 176.246 98.2604 176.251C98.2594 176.26 98.2584 176.267 98.2576 176.275C98.256 176.289 98.2545 176.303 98.2531 176.317C98.1559 177.203 97.411 177.854 96.5505 177.854Z" fill="#0075A4"/>
<path d="M285.513 180.957C285.513 180.957 285.513 180.957 285.513 180.956C285.513 180.957 285.513 180.957 285.513 180.957ZM285.516 180.928C285.555 180.552 285.584 180.173 285.606 179.791C285.607 179.791 285.606 179.791 285.607 179.791C285.585 180.173 285.555 180.552 285.516 180.928Z" fill="#E5C99D"/>
<path d="M285.606 179.791C285.611 179.71 285.615 179.63 285.618 179.548H285.621C285.616 179.63 285.612 179.71 285.607 179.791C285.606 179.791 285.607 179.791 285.606 179.791Z" fill="#016A94"/>
<path d="M305.297 185.58H289.552C287.267 185.58 285.476 183.715 285.48 181.487C285.48 181.339 285.488 181.189 285.504 181.037C285.508 181.011 285.51 180.984 285.513 180.957C285.513 180.957 285.513 180.957 285.513 180.956C285.514 180.948 285.515 180.938 285.516 180.928C285.555 180.552 285.586 180.173 285.607 179.791C285.612 179.71 285.616 179.63 285.621 179.548H310.48V180.401C310.48 183.261 308.159 185.58 305.297 185.58Z" fill="#0075A4"/>
<path d="M244.913 179.548C244.909 178.475 244.986 177.418 245.136 176.385C245.317 175.142 244.39 174.016 243.134 173.986L140.507 171.483C139.387 171.456 138.58 172.524 138.885 173.6C139.417 175.477 139.703 177.456 139.702 179.495C139.701 180.848 139.577 182.17 139.338 183.454C139.092 184.795 140.103 186.035 141.468 186.035H241.897C243.867 186.035 245.356 184.295 245.099 182.343C244.978 181.428 244.915 180.496 244.913 179.548Z" fill="#0093CD"/>
<path d="M241.897 186.035H141.468C140.242 186.035 139.301 185.034 139.302 183.859C139.302 183.725 139.314 183.59 139.338 183.454C139.577 182.17 139.701 180.848 139.702 179.495H244.913C244.913 179.513 244.913 179.53 244.913 179.548C244.915 180.496 244.978 181.428 245.099 182.343C245.119 182.492 245.128 182.639 245.128 182.785C245.127 184.55 243.716 186.035 241.897 186.035Z" fill="#0075A4"/>
<path d="M130.583 144H117.778C117.476 144 117.229 143.755 117.229 143.451V142.307C117.229 142.005 117.476 141.758 117.778 141.758H130.583C130.886 141.758 131.133 142.005 131.133 142.307V143.451C131.133 143.755 130.886 144 130.583 144Z" fill="#0093CD"/>
<path d="M201.173 145.121H188.369C188.065 145.121 187.82 144.875 187.82 144.572V143.428C187.82 143.126 188.065 142.879 188.369 142.879H201.173C201.476 142.879 201.722 143.126 201.722 143.428V144.572C201.722 144.875 201.476 145.121 201.173 145.121Z" fill="#0093CD"/>
<path d="M119.677 138.299L176.395 138.835C176.395 138.835 179.867 138.741 180.338 135.478C180.811 132.215 180.771 118.238 180.771 118.238C180.771 118.238 180.359 115.432 177.669 115.395C176.034 115.373 162.331 114.396 149.003 116.017C138.131 117.341 128.074 122.301 120.449 129.922L116.423 133.944C116.423 133.944 113.707 138.243 119.677 138.299Z" fill="#183658"/>
<path d="M187.084 120.011V134.666C187.084 136.57 188.547 138.133 190.396 138.208L234.962 139.998C235.985 140.04 236.988 139.577 237.574 138.713C238.373 137.537 238.466 135.598 234.472 133C227.528 128.483 209.86 118.711 203.323 117.766C199.163 117.163 193.719 116.902 190.312 116.792C188.545 116.735 187.084 118.192 187.084 120.011Z" fill="#183658"/>
<path d="M281.309 122.193L281.017 122.455C280.866 122.59 280.64 122.585 280.511 122.443L275.32 116.723C275.191 116.58 275.208 116.356 275.359 116.221L275.652 115.959C275.802 115.824 276.029 115.829 276.158 115.971L281.349 121.691C281.477 121.833 281.459 122.058 281.309 122.193Z" fill="#183658"/>
<path d="M298.907 117.546C298.214 116.98 292.848 119.34 292.916 120.162C292.984 120.983 289.173 128.948 289.173 128.948L282.585 123.683L282.583 123.684C282.524 123.493 281.9 121.446 281.869 121.08C281.838 120.695 280.724 120.022 280.207 120.122C279.691 120.222 280.65 120.871 280.712 120.99C280.883 121.316 280.221 121.437 280.221 121.437C280.221 121.437 278.317 120.39 278.277 119.775C278.237 119.159 277.844 117.868 277.433 118.137C277.22 118.277 277.223 119.193 277.289 119.628C277.167 119.135 276.993 118.577 276.825 118.521C276.517 118.42 276.363 118.814 276.419 119.006C276.475 119.199 276.972 121.293 277.123 121.53C277.272 121.759 280.345 124.242 280.788 124.781C280.788 124.781 289.309 134.545 289.916 134.8C290.447 135.024 292.346 131.66 294.139 129.425C295.932 127.192 301.076 119.313 298.907 117.546Z" fill="#F7A491"/>
<path d="M316.1 189.342C316.1 189.342 317.271 190.487 317.298 190.908C317.324 191.328 317.401 195.831 316.923 196.251C316.445 196.672 315.041 196.969 315.492 197.442C315.834 197.8 318.459 197.723 320.197 197.627C320.705 197.599 321.342 193.538 321.543 192.941C321.836 192.075 322.546 190.122 322.281 189.517C322.151 189.223 321.532 188.618 320.659 188.053C319.742 187.46 318.865 186.137 318.865 186.137L316.1 189.342Z" fill="#F48C7F"/>
<path d="M303.971 192.009L305.021 194.983C305.098 195.453 305.405 196.616 305.405 197.043C305.405 198.649 298.182 195.681 299.8 194.969C299.948 194.904 300.407 194.39 300.455 193.843C300.53 193.001 299.847 191.946 299.847 191.946L303.971 192.009Z" fill="#F7A491"/>
<path d="M292.64 136.757C292.64 136.757 292.114 142.075 292.114 142.155C292.114 150.76 290.412 167.567 290.736 169.185C291.525 173.131 300.022 193.26 300.022 193.26L304.613 192.71L298.63 168.609L300.831 158.909L303.948 139.735L292.64 136.757Z" fill="#0075A4"/>
<path d="M308.052 141.462L308.923 146.503L311.281 167.252L320.259 187.531C320.259 187.531 318.996 190.481 317.132 190.895L302.843 170.075L293.968 143.434L294.279 137.516L308.052 141.462Z" fill="#0093CD"/>
<path d="M290.809 124.091L297.177 124.743C297.177 124.743 297.469 119.51 297.469 117.014C297.469 113.985 297.211 110.085 296.846 110.169C295.823 110.405 294.444 110.971 293.622 112.103C290.781 116.015 290.809 124.091 290.809 124.091Z" fill="#3C8F7C"/>
<path d="M293.937 116.48C293.803 117.403 291.356 142.505 291.356 142.505C302.95 148.118 309.347 143.505 309.347 143.505C309.347 143.505 308.968 125.879 309.422 123.479C309.724 121.891 310.098 111.344 309.072 111.048C307.756 110.67 306.246 110.266 304.6 110.095C303.196 109.949 297.739 109.864 296.762 110.193C296.762 110.193 294.498 112.597 293.937 116.48Z" fill="#50BFA5"/>
<path d="M320.603 188.024C320.603 188.024 317.904 195.64 316.848 196.008C316.567 196.107 315.221 196.355 314.967 196.951C314.891 197.131 314.967 197.731 314.967 197.731H320.592C320.592 197.731 321.303 194.375 321.585 192.901C321.585 192.901 323.073 189.298 322.908 188.97C322.743 188.643 320.603 188.024 320.603 188.024Z" fill="#50BFA5"/>
<path d="M305.816 197.573L304.989 194.953C304.989 194.953 303.252 195.69 302.382 195.568C301.514 195.445 299.819 194.953 299.819 194.953C296.352 196.097 293.512 196.652 294.028 197.573H305.816Z" fill="#50BFA5"/>
<path d="M289.916 134.8C289.889 134.789 289.794 134.715 289.741 134.67C289.946 132.211 289.91 129.828 289.139 129.022C289.158 128.984 289.326 128.625 289.502 128.253C290.395 128.945 290.818 130.783 290.652 133.767C290.64 133.972 290.582 134.129 290.535 134.384C290.276 134.669 290.041 134.853 289.916 134.8Z" fill="#F7A491"/>
<path d="M320.83 142.771C320.838 142.718 320.839 142.663 320.834 142.61C320.663 140.872 319.223 126.273 318.98 125.653C318.761 125.093 312.304 115.835 312.304 115.835L309.13 120.169L315.34 128.473C315.479 129.001 317.719 138.856 317.719 138.856C317.719 138.856 318.179 140.651 318.386 141.727C318.291 141.987 318.2 142.231 318.118 142.432C317.912 142.861 317.67 143.213 317.448 143.509C317.171 143.884 316.712 144.697 316.656 144.916C316.59 145.17 316.471 145.697 316.404 146.014C316.337 146.332 316.245 146.702 316.229 146.875C316.221 146.981 316.112 147.189 316.028 147.338C315.904 147.557 316.116 147.819 316.356 147.738C316.582 147.663 316.757 147.37 316.865 147.188C317.171 146.673 317.334 145.733 317.409 145.783C317.486 145.832 317.754 147.427 317.796 147.607C317.839 147.788 318.16 149.64 318.341 149.979C318.522 150.318 318.763 150.261 318.826 150.048C318.88 149.866 318.625 147.274 318.625 147.274C318.625 147.274 318.594 146.944 318.738 147.047C318.883 147.151 319.119 149.503 319.22 149.848C319.319 150.192 319.549 150.375 319.744 150.098C319.979 149.762 319.573 147.266 319.573 147.266C319.573 147.266 319.527 146.951 319.661 146.981C319.795 147.01 319.962 149.016 320.066 149.188C320.17 149.362 320.433 149.424 320.558 149.135C320.705 148.795 320.323 146.57 320.323 146.57C320.323 146.57 320.343 146.393 320.426 146.452C320.509 146.511 320.773 148.21 320.946 148.367C321.091 148.5 321.212 148.371 321.212 148.371C321.528 148.155 321.043 146.538 321.048 145.734C321.053 144.932 320.681 144.028 320.792 143.071C320.799 143.012 320.818 142.863 320.83 142.771Z" fill="#F8A492"/>
<path d="M317.349 121.698L311.833 125.411C311.833 125.411 308.723 120.773 307.054 119.122C304.965 117.054 307.817 110.718 309.164 111.076C312.176 111.878 317.349 121.698 317.349 121.698Z" fill="#3C8F7C"/>
<path d="M304.195 104.669L305.021 110.121C305.021 110.121 302.007 116.611 300.208 116.049C298.699 115.576 299.628 109.833 299.628 109.833C299.628 109.833 300.45 106.748 300.203 105.204C299.956 103.662 304.195 104.669 304.195 104.669Z" fill="#F7A491"/>
<path d="M300.203 105.204C299.956 103.662 304.195 104.669 304.195 104.669L304.263 105.121C304.139 105.423 303.987 105.682 303.804 105.881C302.857 106.902 301.377 107.515 300.098 107.562C300.226 106.73 300.305 105.838 300.203 105.204Z" fill="#0075A4"/>
<path d="M304.89 96.9567C305.01 96.913 305.851 103.165 304.256 104.886C302.661 106.606 299.554 107.169 298.439 105.814C297.206 104.315 297.268 97.5956 299.748 95.826C302.227 94.0565 304.89 96.9567 304.89 96.9567Z" fill="#F7A491"/>
<path d="M300.692 92.4813C302.609 92.8736 303.85 94.0468 304.306 94.5472C305.176 94.6504 306.359 95.1326 307.581 97.1596C309.082 99.6529 307.973 102.415 306.225 103.769C304.476 105.124 304.5 106.688 304.5 106.688L304.224 105.88C304.02 105.266 303.937 104.617 304.005 103.973C304.047 103.587 304.129 103.169 304.289 102.826C304.708 101.922 303.385 101.32 303.013 100.567C302.728 99.9881 302.714 98.6619 302.263 97.7037L301.726 96.9725C301.726 96.9725 300.486 96.0046 299.272 96.2766C298.058 96.5499 298.232 91.9785 300.692 92.4813Z" fill="#184655"/>
<path d="M303.095 101.68C303.083 102.443 303.429 103.067 303.868 103.075C304.307 103.083 304.674 102.471 304.686 101.708C304.7 100.945 304.353 100.32 303.914 100.312C303.474 100.305 303.108 100.917 303.095 101.68Z" fill="#F7A491"/>
<path d="M300.506 103.442L298.102 103.318C298.102 103.318 298.109 104.236 299.166 104.321C300.452 104.426 300.506 103.442 300.506 103.442Z" fill="white"/>
<path d="M177.198 66.6563C177.247 62.7735 180.437 59.6669 184.322 59.7155C188.209 59.764 191.318 62.9509 191.27 66.8324C191.221 70.7151 188.031 73.8218 184.146 73.7732C180.259 73.7246 177.15 70.5378 177.198 66.6563ZM170.257 72.2393L183.825 99.1476L198.069 72.5903C202.285 62.8488 195.516 51.735 184.902 51.2941C184.745 51.2869 184.587 51.2832 184.429 51.2808C184.271 51.2784 184.113 51.2796 183.956 51.282C173.334 51.4557 166.286 62.3958 170.257 72.2393Z" fill="#0075A4"/>
<path d="M359.474 201H6.73954C5.89696 201 5.21387 200.317 5.21387 199.476V199.097C5.21387 198.255 5.89696 197.573 6.73954 197.573H359.474C360.317 197.573 361 198.255 361 199.097V199.476C361 200.317 360.317 201 359.474 201Z" fill="#183658"/>
</svg>
