<svg width="750" height="428" viewBox="0 0 750 428" fill="none" xmlns="http://www.w3.org/2000/svg">
<path d="M673.73 303.61H493C491.447 303.607 489.958 302.989 488.859 301.891C487.761 300.792 487.143 299.303 487.14 297.75V34.4701C487.143 32.9168 487.761 31.4278 488.859 30.3294C489.958 29.231 491.447 28.6128 493 28.6101H673.73C675.285 28.6101 676.777 29.2272 677.877 30.3259C678.978 31.4245 679.597 32.915 679.6 34.4701V297.75C679.597 299.305 678.978 300.796 677.877 301.894C676.777 302.993 675.285 303.61 673.73 303.61ZM493 28.8601C491.512 28.8601 490.085 29.4512 489.033 30.5032C487.981 31.5553 487.39 32.9822 487.39 34.4701V297.75C487.39 299.238 487.981 300.665 489.033 301.717C490.085 302.769 491.512 303.36 493 303.36H673.73C675.219 303.36 676.647 302.769 677.701 301.718C678.754 300.666 679.347 299.239 679.35 297.75V34.4701C679.347 32.9813 678.754 31.5544 677.701 30.5026C676.647 29.4508 675.219 28.8601 673.73 28.8601H493Z" fill="#E0E0E0"/>
<path d="M465.31 303.61H284.56C283.007 303.607 281.518 302.989 280.419 301.891C279.321 300.792 278.703 299.303 278.7 297.75V34.4701C278.703 32.9168 279.321 31.4278 280.419 30.3294C281.518 29.231 283.007 28.6128 284.56 28.6101H465.31C466.863 28.6128 468.352 29.231 469.451 30.3294C470.549 31.4278 471.167 32.9168 471.17 34.4701V297.75C471.167 299.303 470.549 300.792 469.451 301.891C468.352 302.989 466.863 303.607 465.31 303.61ZM284.56 28.8601C283.082 28.8759 281.669 29.4736 280.628 30.5237C279.588 31.5738 279.002 32.9917 279 34.4701V297.75C279.003 299.237 279.594 300.663 280.646 301.714C281.698 302.766 283.123 303.357 284.61 303.36H465.31C466.797 303.357 468.222 302.766 469.274 301.714C470.325 300.663 470.917 299.237 470.92 297.75V34.4701C470.917 32.9831 470.325 31.5577 469.274 30.5062C468.222 29.4547 466.797 28.8628 465.31 28.8601H284.56Z" fill="#E0E0E0"/>
<path d="M257 303.61H76.2699C74.7148 303.61 73.2233 302.993 72.1227 301.894C71.0222 300.796 70.4026 299.305 70.3999 297.75V34.4701C70.4026 32.915 71.0222 31.4245 72.1227 30.3259C73.2233 29.2272 74.7148 28.6101 76.2699 28.6101H257C258.553 28.6128 260.042 29.231 261.141 30.3294C262.239 31.4278 262.857 32.9168 262.86 34.4701V297.75C262.857 299.303 262.239 300.792 261.141 301.891C260.042 302.989 258.553 303.607 257 303.61ZM76.2699 28.8601C74.7811 28.8601 73.3532 29.4508 72.2995 30.5026C71.2458 31.5544 70.6526 32.9813 70.6499 34.4701V297.75C70.6526 299.239 71.2458 300.666 72.2995 301.718C73.3532 302.769 74.7811 303.36 76.2699 303.36H257C258.488 303.36 259.915 302.769 260.967 301.717C262.019 300.665 262.61 299.238 262.61 297.75V34.4701C262.61 32.9822 262.019 31.5553 260.967 30.5032C259.915 29.4512 258.488 28.8601 257 28.8601H76.2699Z" fill="#E0E0E0"/>
<path d="M750 364.68H0V364.8H750V364.68Z" fill="#E0E0E0"/>
<path d="M709.36 394.06H653.63V394.48H709.36V394.06Z" fill="#EBEBEB"/>
<path d="M509.67 398.62H495.04V399.04H509.67V398.62Z" fill="#EBEBEB"/>
<path d="M113.31 381.26H40.6401V381.68H113.31V381.26Z" fill="#EBEBEB"/>
<path d="M138.96 381.26H128.3V381.68H138.96V381.26Z" fill="#EBEBEB"/>
<path d="M331.2 388.36H173.59V388.78H331.2V388.36Z" fill="#EBEBEB"/>
<path d="M306.31 143.76C304.668 142.768 302.766 142.291 300.85 142.39C299.68 140.96 300.63 138.82 301.76 137.39C302.89 135.96 304.29 134.29 303.86 132.49C303.19 129.79 299.4 129.68 296.67 130.21C295.67 128.58 295.67 126.56 295.19 124.67C294.71 122.78 293.1 120.81 291.31 121.08C289.52 121.35 288.42 123.32 286.66 123.74C284.61 124.22 282.83 122.41 281.23 121.05C281.029 120.882 280.818 120.725 280.6 120.58C280.94 114.96 286.29 115.86 290.84 115.09C294.4 114.5 284.97 105.5 292.16 102.6C293.555 102.217 294.779 101.37 295.63 100.2C295.994 99.3136 296.036 98.3273 295.747 97.4135C295.458 96.4997 294.857 95.7163 294.05 95.2C292.412 94.2154 290.518 93.7419 288.61 93.84C287.44 92.41 288.38 90.26 289.52 88.84C290.66 87.42 292.04 85.74 291.62 83.94C290.94 81.24 287.16 81.13 284.43 81.66C283.43 80.03 283.43 78 282.95 76.12C282.47 74.24 280.87 72.26 279.07 72.52C277.27 72.78 276.18 74.77 274.41 75.19C272.36 75.67 270.59 73.85 268.98 72.5C267.37 71.15 264.57 70.29 263.47 72.08C262.81 73.14 263.2 74.62 262.47 75.68C261.28 77.48 258.47 76.37 256.69 75.08C254.91 73.79 252.11 72.61 250.91 74.41C250.6 74.9997 250.371 75.6288 250.23 76.28C250.055 76.7414 249.816 77.1757 249.52 77.57C249.17 76.32 249.06 74.97 248.74 73.71C248.25 71.84 246.65 69.85 244.85 70.11C243.05 70.37 241.96 72.37 240.2 72.78C238.15 73.27 236.38 71.44 234.77 70.09C233.16 68.74 230.36 67.88 229.25 69.68C228.59 70.74 228.99 72.22 228.25 73.28C228.108 73.5182 227.913 73.7202 227.68 73.87C227.082 73.7707 226.476 73.7305 225.87 73.75C224.69 72.33 225.64 70.2 226.78 68.75C227.92 67.3 229.31 65.64 228.88 63.85C228.21 61.14 224.42 61.04 221.68 61.57C220.68 59.93 220.68 57.9 220.21 56.03C219.74 54.16 218.12 52.16 216.32 52.44C214.52 52.72 213.43 54.69 211.67 55.11C209.62 55.59 207.85 53.79 206.24 52.42C204.63 51.05 201.83 50.22 200.72 52C200.07 53 200.46 54.55 199.72 55.6C198.53 57.39 195.72 56.28 193.95 54.99C192.18 53.7 189.36 52.52 188.16 54.32C187.841 54.9104 187.609 55.5435 187.47 56.2C186.65 58.6 184.04 59.8 182.03 61.33C180.02 62.86 178.42 65.93 180.12 67.8C180.96 68.73 182.45 69.08 182.87 70.28C183.38 71.69 181.87 73.07 180.69 74.09C179.918 74.946 179.398 75.9984 179.186 77.1311C178.975 78.2639 179.08 79.4332 179.49 80.51C178.89 81.0516 178.181 81.4575 177.41 81.7C175.41 82.18 173.59 80.37 171.98 79.02C170.37 77.67 167.57 76.81 166.47 78.6C165.81 79.6 166.2 81.14 165.47 82.2C164.28 83.99 161.47 82.89 159.7 81.6C157.93 80.31 155.11 79.13 153.91 80.93C153.598 81.5198 153.366 82.1487 153.22 82.8C152.4 85.19 149.79 86.39 147.78 87.93C145.77 89.47 144.17 92.52 145.87 94.4C146.68 95.34 148.07 95.72 148.55 96.8C147.13 96.24 145.5 96.38 144.84 97.44C144.18 98.5 144.58 99.98 143.84 101.03C142.66 102.83 139.84 101.73 138.08 100.43C136.32 99.13 133.48 97.96 132.28 99.76C131.971 100.354 131.743 100.986 131.6 101.64C130.77 104.04 128.17 105.22 126.16 106.76C124.15 108.3 122.55 111.37 124.25 113.24C125.09 114.16 126.58 114.52 127 115.72C127.52 117.14 126 118.52 124.83 119.53C122.83 121.21 122.48 126.26 125.1 127.65C126.21 128.23 127.85 128.53 128.1 129.65C128.35 130.77 127.23 131.58 126.5 132.42C126.332 132.638 126.181 132.868 126.05 133.11C125.72 133.709 125.511 134.367 125.435 135.046C125.359 135.726 125.418 136.414 125.609 137.07C125.799 137.727 126.117 138.34 126.545 138.873C126.972 139.407 127.501 139.851 128.1 140.18C128.73 140.46 129.5 140.72 129.74 141.38C129.833 141.872 129.777 142.38 129.58 142.84C129.332 143.758 129.248 144.713 129.33 145.66C129.31 145.817 129.327 145.976 129.38 146.125C129.434 146.274 129.522 146.408 129.637 146.516C129.752 146.625 129.891 146.704 130.043 146.748C130.195 146.792 130.355 146.8 130.51 146.77C134.3 146.94 136.12 145.6 138.43 148.89C138.635 149.223 138.907 149.509 139.23 149.73C139.541 149.887 139.882 149.972 140.23 149.98C142.83 150.2 144.51 148.58 146.91 148.27C150.23 147.85 150.91 149.55 153.83 150.92C158.39 153.08 160.61 151.75 161.48 148.63C161.703 147.746 161.837 146.841 161.88 145.93C161.872 145.25 162.011 144.577 162.287 143.956C162.564 143.334 162.97 142.78 163.48 142.33H163.55C165.98 142.54 167.63 141.15 169.76 140.72L171.12 140.57C173.65 140.57 174.49 142.07 177.12 143.27C178.332 143.892 179.668 144.234 181.03 144.27C181.41 145.69 180.03 146.96 178.82 147.94C176.82 149.63 176.49 154.68 179.11 156.06C180.2 156.64 181.86 156.96 182.11 158.06C182.36 159.16 181.24 159.99 180.51 160.82C180.34 161.032 180.189 161.26 180.06 161.5C179.395 162.713 179.237 164.14 179.621 165.468C180.005 166.797 180.9 167.92 182.11 168.59C182.73 168.89 183.51 169.13 183.74 169.78C183.841 170.277 183.789 170.793 183.59 171.26C183.332 172.173 183.247 173.126 183.34 174.07C183.32 174.227 183.337 174.386 183.39 174.535C183.444 174.684 183.532 174.818 183.647 174.926C183.762 175.035 183.901 175.114 184.053 175.158C184.205 175.202 184.365 175.21 184.52 175.18C188.31 175.35 190.13 174.01 192.44 177.3C192.636 177.637 192.906 177.924 193.23 178.14C193.559 178.298 193.916 178.39 194.28 178.41C196.88 178.62 198.56 176.99 200.96 176.69C204.27 176.27 204.96 177.97 207.86 179.34C212.44 181.49 214.66 180.17 215.52 177.05C215.751 176.164 215.889 175.255 215.93 174.34C216.27 168.73 221.62 169.62 226.18 168.86C226.339 168.85 226.493 168.797 226.625 168.708C226.757 168.618 226.862 168.494 226.93 168.35H227.22C229.82 168.56 231.5 166.94 233.89 166.63C237.22 166.21 237.89 167.91 240.81 169.28C245.38 171.44 247.6 170.11 248.46 166.99C248.691 166.104 248.829 165.195 248.87 164.28C249.17 159.92 252.47 159.49 256.06 159.15C256.115 160 256.387 160.822 256.849 161.538C257.311 162.254 257.948 162.84 258.7 163.24C259.34 163.53 260.11 163.78 260.35 164.44C260.438 164.932 260.382 165.439 260.19 165.9C259.937 166.814 259.852 167.766 259.94 168.71C259.932 169.035 260.051 169.35 260.27 169.59C260.517 169.758 260.812 169.842 261.11 169.83C264.9 170 266.72 168.66 269.04 171.96C269.241 172.29 269.511 172.573 269.83 172.79C270.14 172.95 270.482 173.039 270.83 173.05C273.43 173.26 275.11 171.64 277.51 171.33C280.83 170.91 281.51 172.61 284.43 173.98C289 176.14 291.22 174.81 292.08 171.69C292.307 170.806 292.444 169.901 292.49 168.99C292.82 163.37 298.18 164.27 302.74 163.5C306.3 162.91 296.85 153.91 304.05 151.01C305.442 150.626 306.663 149.78 307.51 148.61C307.878 147.783 307.959 146.858 307.742 145.979C307.525 145.101 307.021 144.32 306.31 143.76Z" fill="#E0E0E0"/>
<path d="M173.87 177.27C172.507 176.439 170.924 176.041 169.33 176.13C168.33 174.93 169.15 173.13 170.09 171.94C171.03 170.75 172.2 169.4 171.83 167.85C171.29 165.59 168.14 165.52 165.83 165.96C164.98 164.59 165.01 162.89 164.57 161.34C164.13 159.79 162.92 158.17 161.33 158.34C159.74 158.51 158.92 160.22 157.45 160.56C155.75 160.97 154.26 159.46 152.93 158.33C151.6 157.2 149.25 156.49 148.32 157.97C147.78 158.86 148.11 160.12 147.54 160.97C146.54 162.5 144.19 161.55 142.72 160.47C141.25 159.39 138.91 158.41 137.89 159.91C137.64 160.406 137.449 160.929 137.32 161.47C136.64 163.47 134.48 164.47 132.79 165.74C131.1 167.01 129.79 169.55 131.21 171.14C131.91 171.91 133.14 172.23 133.49 173.21C133.92 174.47 132.67 175.54 131.68 176.38C130.03 177.79 129.68 182 131.91 183.14C132.83 183.62 134.18 183.78 134.44 184.79C134.7 185.8 133.73 186.4 133.17 187.1C132.467 188.011 132.153 189.163 132.298 190.304C132.442 191.445 133.033 192.483 133.94 193.19C134.12 193.328 134.311 193.452 134.51 193.56C135.03 193.81 135.67 194.02 135.86 194.56C135.96 194.985 135.918 195.431 135.74 195.83C135.526 196.59 135.455 197.384 135.53 198.17C135.53 198.44 135.63 198.7 135.81 198.9C136.013 199.047 136.26 199.121 136.51 199.11C139.66 199.25 141.18 198.11 143.11 200.87C143.279 201.147 143.504 201.385 143.77 201.57C144.041 201.705 144.338 201.777 144.64 201.78C146.81 201.96 148.22 200.62 150.21 200.36C152.96 200.01 153.54 201.43 155.96 202.57C159.77 204.36 161.63 203.26 162.31 200.65C162.499 199.917 162.613 199.166 162.65 198.41C162.93 193.73 167.39 194.41 171.19 193.83C174.19 193.33 166.3 185.83 172.28 183.42C173.446 183.109 174.468 182.402 175.17 181.42C175.476 180.686 175.514 179.867 175.276 179.108C175.038 178.349 174.541 177.698 173.87 177.27Z" fill="#E0E0E0"/>
<path d="M231.89 151.4L236.78 135.89L246.3 123.65L244.67 122.29L235.67 132.08L234.08 116.57H231.48C231.48 116.57 233.61 135 230.54 141.74C230.54 141.74 219.38 170.14 212.54 176.28C212.159 176.641 211.823 177.047 211.54 177.49C209.508 172.261 206.859 167.292 203.65 162.69C206.34 155.83 212.09 140.74 214.05 132.69C215.579 126.432 216.728 120.087 217.49 113.69L215.27 113.44C215.27 113.44 208.95 143.26 198.51 156.84C195.422 153.993 191.919 151.633 188.12 149.84C187.27 145.65 186.91 138.36 189.68 126.97L187.48 126.41C184.802 133.151 183.493 140.358 183.63 147.61C182.06 146.818 180.547 145.92 179.1 144.92C169.11 137.8 162 125 162 125L160 127C160 127 168.59 145.85 180.55 152.15C192.51 158.45 200.27 173.79 200.89 177.81C201.06 178.96 202.44 188.07 200.52 204.03C187.79 198.6 162.52 183.65 160.89 182.27L157.95 186.27L198.77 215.47C199.41 254.39 196.47 294.88 196.57 303.64H220.34C219.76 291.56 214.75 246.11 216.97 198.64C217.16 197.47 217.36 196.13 217.55 194.57C219.41 180.01 230.46 160.1 235.72 154.44C239.416 150.531 243.394 146.898 247.62 143.57L246.18 140.47L231.89 151.4Z" fill="#E6E6E6"/>
<path d="M420 31.1C419.997 29.6076 419.403 28.1771 418.348 27.1219C417.293 26.0666 415.862 25.4726 414.37 25.47C413.824 25.4691 413.282 25.55 412.76 25.71C412.84 25.1368 412.88 24.5587 412.88 23.98C412.88 20.8255 411.63 17.7996 409.403 15.5654C407.176 13.3311 404.155 12.0705 401 12.06C400.266 12.0611 399.533 12.128 398.81 12.26C397.635 10.3289 395.863 8.83247 393.763 7.99633C391.663 7.16019 389.348 7.02972 387.167 7.62461C384.986 8.2195 383.058 9.50747 381.673 11.2942C380.288 13.081 379.522 15.2696 379.49 17.53H379.31C376.816 17.6104 374.452 18.6576 372.716 20.4501C370.98 22.2426 370.01 24.6399 370.01 27.135C370.01 29.63 370.98 32.0273 372.716 33.8198C374.452 35.6123 376.816 36.6595 379.31 36.74H414.57C416.031 36.6906 417.415 36.074 418.429 35.021C419.442 33.9681 420.006 32.5616 420 31.1Z" fill="#F0F0F0"/>
<path d="M510.58 87C510.58 85.6155 510.03 84.2878 509.051 83.3089C508.072 82.3299 506.744 81.78 505.36 81.78C504.855 81.7724 504.351 81.8467 503.87 82C503.942 81.4663 503.979 80.9284 503.98 80.39C503.964 77.4671 502.792 74.6693 500.719 72.6081C498.647 70.5469 495.843 69.3899 492.92 69.39C492.249 69.3916 491.58 69.4519 490.92 69.57C489.828 67.7836 488.187 66.3998 486.242 65.6263C484.296 64.8527 482.153 64.7314 480.132 65.2804C478.112 65.8293 476.325 67.0191 475.039 68.6708C473.753 70.3224 473.037 72.3469 473 74.44H472.84C470.477 74.44 468.211 75.3787 466.54 77.0496C464.869 78.7206 463.93 80.9869 463.93 83.35C463.93 85.713 464.869 87.9793 466.54 89.6503C468.211 91.3212 470.477 92.26 472.84 92.26H505.55C506.909 92.213 508.196 91.6366 509.136 90.6538C510.075 89.671 510.594 88.3597 510.58 87Z" fill="#E0E0E0"/>
<path d="M210.61 13.32C210.61 12.4873 210.279 11.6886 209.69 11.0997C209.101 10.5109 208.303 10.18 207.47 10.18C207.165 10.1727 206.861 10.2167 206.57 10.31C206.612 9.97835 206.632 9.64431 206.63 9.31003C206.622 7.55593 205.92 5.87622 204.678 4.63775C203.436 3.39927 201.754 2.70265 200 2.70003C199.587 2.6969 199.176 2.73374 198.77 2.81003C198.114 1.73438 197.126 0.901048 195.956 0.435642C194.785 -0.0297641 193.495 -0.102029 192.279 0.229742C191.064 0.561512 189.989 1.27934 189.218 2.27503C188.446 3.27072 188.018 4.49033 188 5.75003H187.9C186.52 5.80969 185.216 6.39995 184.26 7.39767C183.305 8.3954 182.771 9.72354 182.771 11.105C182.771 12.4865 183.305 13.8147 184.26 14.8124C185.216 15.8101 186.52 16.4004 187.9 16.46H207.56C208.377 16.4366 209.153 16.0955 209.722 15.5091C210.292 14.9228 210.61 14.1374 210.61 13.32Z" fill="#F0F0F0"/>
<path d="M667 30.85C667 30.1308 666.858 29.4187 666.583 28.7544C666.307 28.0901 665.903 27.4867 665.394 26.9786C664.885 26.4705 664.281 26.0678 663.616 25.7935C662.952 25.5192 662.239 25.3787 661.52 25.38C660.991 25.3765 660.465 25.454 659.96 25.61C660.04 25.0536 660.08 24.4922 660.08 23.93C660.074 22.2292 659.695 20.5503 658.97 19.0118C658.245 17.4733 657.191 16.1126 655.883 15.0256C654.574 13.9386 653.044 13.1518 651.398 12.7206C649.753 12.2894 648.033 12.2243 646.36 12.53C645.214 10.6558 643.491 9.20441 641.449 8.39416C639.407 7.58391 637.157 7.45865 635.038 8.03722C632.919 8.61579 631.045 9.86689 629.698 11.6023C628.351 13.3377 627.605 15.4636 627.57 17.66H627.4C624.923 17.66 622.547 18.644 620.796 20.3956C619.044 22.1472 618.06 24.5229 618.06 27C618.06 29.4771 619.044 31.8528 620.796 33.6044C622.547 35.356 624.923 36.34 627.4 36.34H661.68C663.108 36.3009 664.464 35.7046 665.458 34.6787C666.452 33.6527 667.006 32.2786 667 30.85Z" fill="#F0F0F0"/>
<path d="M372.64 97.3699C372.64 95.7282 371.988 94.1538 370.827 92.9929C369.666 91.8321 368.092 91.1799 366.45 91.1799C365.851 91.1815 365.255 91.2691 364.68 91.4399C364.773 90.811 364.817 90.1757 364.81 89.5399C364.807 87.6162 364.381 85.7167 363.562 83.976C362.744 82.2353 361.552 80.6959 360.072 79.4669C358.592 78.238 356.86 77.3495 354.999 76.8644C353.137 76.3793 351.192 76.3095 349.3 76.6599C348.009 74.538 346.062 72.8935 343.755 71.9746C341.447 71.0557 338.903 70.9122 336.506 71.5658C334.11 72.2194 331.991 73.6346 330.469 75.5979C328.947 77.5612 328.105 79.9662 328.07 82.4499H327.87C325.149 82.5684 322.578 83.7327 320.695 85.7001C318.811 87.6675 317.76 90.2862 317.76 93.0099C317.76 95.7337 318.811 98.3523 320.695 100.32C322.578 102.287 325.149 103.451 327.87 103.57H366.63C368.243 103.526 369.775 102.852 370.898 101.694C372.021 100.535 372.646 98.9834 372.64 97.3699Z" fill="#E0E0E0"/>
<path d="M612.92 303.28H619.37V73.0601C619.37 67.4905 617.157 62.1491 613.219 58.2108C609.281 54.2726 603.939 52.0601 598.37 52.0601H592.67V58.5101H598.37C602.214 58.5154 605.899 60.0447 608.617 62.7629C611.335 65.481 612.865 69.166 612.87 73.0101L612.92 303.28Z" fill="#E0E0E0"/>
<path d="M551.43 60.0001H597.87L596.81 53.0001C596.636 51.8549 596.099 50.7957 595.278 49.9784C594.457 49.1612 593.396 48.6289 592.25 48.4601C589.19 48.0101 585.19 47.4601 583.31 47.4601C577.82 47.3401 564.31 48.7501 557.65 49.4601C556.548 49.5797 555.51 50.0369 554.677 50.7689C553.845 51.501 553.259 52.4724 553 53.5501L551.43 60.0001Z" fill="#EBEBEB"/>
<path d="M556.34 64.91H593C594.3 64.91 595.548 64.3941 596.468 63.4754C597.389 62.5568 597.907 61.3105 597.91 60.01H551.43C551.43 60.6543 551.557 61.2923 551.804 61.8875C552.051 62.4826 552.413 63.0232 552.869 63.4784C553.325 63.9335 553.866 64.2942 554.462 64.5399C555.057 64.7856 555.696 64.9113 556.34 64.91Z" fill="#F5F5F5"/>
<path d="M590.85 95.9C590.8 95.898 590.752 95.882 590.712 95.8536C590.671 95.8252 590.639 95.7858 590.62 95.74L581.91 75.2C581.897 75.1692 581.89 75.1361 581.89 75.1027C581.89 75.0692 581.897 75.0362 581.91 75.0054C581.923 74.9746 581.942 74.9468 581.966 74.9235C581.99 74.9003 582.019 74.8821 582.05 74.87C582.079 74.8554 582.111 74.8471 582.144 74.8459C582.177 74.8446 582.209 74.8503 582.239 74.8626C582.27 74.8749 582.297 74.8935 582.319 74.9172C582.342 74.9409 582.359 74.9691 582.37 75L591.08 95.55C591.093 95.5802 591.1 95.6127 591.101 95.6456C591.102 95.6786 591.096 95.7113 591.084 95.742C591.072 95.7727 591.053 95.8007 591.031 95.8243C591.008 95.848 590.98 95.8669 590.95 95.88L590.85 95.9Z" fill="#E0E0E0"/>
<path d="M572.88 108.94C572.814 108.94 572.75 108.914 572.703 108.867C572.656 108.82 572.63 108.756 572.63 108.69C572.63 102.76 572.82 97.2301 573 91.8901C573.18 86.5501 573.36 81.0301 573.36 75.1001C573.36 75.0338 573.386 74.9702 573.433 74.9233C573.48 74.8764 573.544 74.8501 573.61 74.8501C573.676 74.8501 573.74 74.8764 573.787 74.9233C573.834 74.9702 573.86 75.0338 573.86 75.1001C573.86 81.0301 573.67 86.5601 573.5 91.9001C573.33 97.2401 573.13 102.76 573.13 108.69C573.13 108.756 573.104 108.82 573.057 108.867C573.01 108.914 572.946 108.94 572.88 108.94Z" fill="#E0E0E0"/>
<path d="M553.64 91.1501C553.583 91.149 553.528 91.1317 553.48 91.1001C553.456 91.0777 553.437 91.0506 553.424 91.0205C553.411 90.9904 553.404 90.9579 553.404 90.9251C553.404 90.8924 553.411 90.8599 553.424 90.8298C553.437 90.7997 553.456 90.7726 553.48 90.7501L566.15 74.0001C566.17 73.9739 566.194 73.9518 566.223 73.935C566.251 73.9183 566.282 73.9073 566.315 73.9027C566.347 73.898 566.38 73.8998 566.412 73.908C566.444 73.9161 566.474 73.9304 566.5 73.9501C566.524 73.9726 566.543 73.9997 566.556 74.0298C566.569 74.0599 566.576 74.0923 566.576 74.1251C566.576 74.1579 566.569 74.1904 566.556 74.2205C566.543 74.2506 566.524 74.2777 566.5 74.3002L553.79 91.0101C553.777 91.0431 553.757 91.0728 553.731 91.097C553.705 91.1212 553.674 91.1394 553.64 91.1501Z" fill="#E0E0E0"/>
<path d="M637.6 421.63C637.6 425.02 520.03 427.76 375 427.76C229.97 427.76 112.4 425 112.4 421.63C112.4 418.26 230 415.5 375 415.5C520 415.5 637.6 418.25 637.6 421.63Z" fill="#F5F5F5"/>
<path d="M61.88 43.79H160.51C163.995 43.79 167.337 45.1744 169.801 47.6387C172.266 50.1029 173.65 53.4451 173.65 56.93V268.19C173.65 272.699 171.859 277.023 168.671 280.211C165.483 283.399 161.159 285.19 156.65 285.19H65.77C61.2613 285.19 56.9373 283.399 53.7492 280.211C50.5611 277.023 48.77 272.699 48.77 268.19V56.93C48.77 53.4503 50.1503 50.1126 52.608 47.6492C55.0658 45.1859 58.4003 43.798 61.88 43.79Z" fill="#263238"/>
<path d="M137.09 49.2101L135.09 53.2101H86.2103L83.3103 49.2101H60.2003C59.327 49.2048 58.4612 49.3716 57.6523 49.7009C56.8435 50.0303 56.1075 50.5157 55.4862 51.1295C54.865 51.7433 54.3708 52.4735 54.0317 53.2783C53.6927 54.0831 53.5155 54.9468 53.5103 55.8201V268.82C53.5261 271.486 54.5999 274.037 56.4956 275.912C58.3913 277.788 60.9539 278.833 63.6203 278.82H158.77C160.091 278.828 161.4 278.575 162.623 278.077C163.846 277.579 164.959 276.844 165.898 275.915C166.837 274.987 167.583 273.882 168.095 272.665C168.607 271.447 168.874 270.141 168.88 268.82V55.8201C168.875 54.9468 168.698 54.0831 168.359 53.2783C168.02 52.4735 167.525 51.7433 166.904 51.1295C166.283 50.5157 165.547 50.0303 164.738 49.7009C163.929 49.3716 163.064 49.2048 162.19 49.2101H137.09Z" fill="#00AFF5"/>
<path d="M109.13 50.8401C110.24 50.8401 111.14 49.9402 111.14 48.8301C111.14 47.72 110.24 46.8201 109.13 46.8201C108.02 46.8201 107.12 47.72 107.12 48.8301C107.12 49.9402 108.02 50.8401 109.13 50.8401Z" fill="white"/>
<path d="M114.11 48.8301C114.11 49.0279 114.051 49.2212 113.941 49.3856C113.831 49.5501 113.675 49.6783 113.493 49.754C113.31 49.8296 113.109 49.8494 112.915 49.8109C112.721 49.7723 112.543 49.677 112.403 49.5372C112.263 49.3973 112.168 49.2192 112.129 49.0252C112.09 48.8312 112.11 48.6301 112.186 48.4474C112.262 48.2647 112.39 48.1085 112.554 47.9986C112.719 47.8887 112.912 47.8301 113.11 47.8301C113.375 47.8301 113.629 47.9354 113.817 48.123C114.005 48.3105 114.11 48.5649 114.11 48.8301Z" fill="white"/>
<path d="M162.19 49.2101H137.09L135.09 53.2101H86.2103L83.3103 49.2101H60.2003C59.327 49.2048 58.4612 49.3716 57.6523 49.7009C56.8435 50.0303 56.1075 50.5157 55.4862 51.1295C54.865 51.7433 54.3708 52.4735 54.0317 53.2783C53.6927 54.0831 53.5155 54.9468 53.5103 55.8201V110.31H168.88V55.8201C168.875 54.9468 168.698 54.0831 168.359 53.2783C168.02 52.4735 167.525 51.7433 166.904 51.1295C166.283 50.5157 165.547 50.0303 164.738 49.7009C163.929 49.3716 163.064 49.2048 162.19 49.2101Z" fill="#00AFF5"/>
<path opacity="0.6" d="M153.93 53.4001H153.03V55.4301H153.93V53.4001Z" fill="white"/>
<path opacity="0.6" d="M161.75 52.6602H154.55V56.1802H161.75V52.6602Z" fill="white"/>
<path opacity="0.4" d="M168.84 101.19H53.6401V271.77H168.84V101.19Z" fill="white"/>
<path opacity="0.2" d="M168.84 127.43V118.89L141.74 143.89L113.12 134.36L131.05 101.2H123.84L116.2 115.3L60.7501 101.18H53.6601V105.77L74.5301 111.06L57.5901 140.89L97.3201 150.23L92.6001 159L53.6001 149.23V155.62L89.5101 164.62L77.9301 186.08L59.5701 180.92L53.6401 184.66V192.07L60.6401 187.66L74.9301 191.66L53.6401 231V244.35L67.5501 218.63L86.4701 224V247.47L125 271.77H137.6L92.8701 243.57V225.79L168.87 247.32V240.88L146.2 234.43L153.13 197.58L168.91 201.58V195.2L126.3 184.42L145.19 149.28L168.84 127.43ZM67.2101 136.78L80.9301 112.71L113.19 120.93L100.39 144.59L67.2101 136.78ZM146.85 196L140 232.7L70.5701 213L90.0101 177L97.4501 185L120.83 189.41L146.85 196ZM119.85 182.94L100.85 179.33L93.2301 171.18L110.16 139.86L138 149.15L119.85 182.94Z" fill="black"/>
<path opacity="0.6" d="M148.84 91.6601H81.9999C80.8603 91.6601 79.7671 91.2087 78.9594 90.4048C78.1516 89.6008 77.6952 88.5097 77.6899 87.3701C77.6926 86.2305 78.1465 85.1383 78.9523 84.3324C79.7581 83.5266 80.8503 83.0727 81.9899 83.0701H148.84C149.405 83.0727 149.963 83.1865 150.484 83.405C151.005 83.6235 151.477 83.9425 151.875 84.3436C152.272 84.7448 152.587 85.2203 152.8 85.743C153.014 86.2657 153.123 86.8254 153.12 87.3901C153.112 88.5218 152.658 89.6049 151.857 90.4042C151.056 91.2036 149.972 91.6548 148.84 91.6601Z" fill="white"/>
<path d="M72.47 84.3203C72.1644 84.0137 71.8013 83.7704 71.4014 83.6044C71.0016 83.4385 70.5729 83.353 70.14 83.353C69.7071 83.353 69.2785 83.4385 68.8786 83.6044C68.4788 83.7704 68.1157 84.0137 67.81 84.3203C67.2054 84.9371 66.8667 85.7665 66.8667 86.6303C66.8667 87.494 67.2054 88.3234 67.81 88.9403L70.12 91.2503L72.43 88.9403C73.04 88.3287 73.3859 87.5022 73.3934 86.6384C73.4009 85.7746 73.0694 84.9424 72.47 84.3203ZM71.18 87.6903C70.9744 87.8957 70.7125 88.0355 70.4273 88.0921C70.1422 88.1487 69.8467 88.1195 69.5782 88.0082C69.3097 87.8969 69.0802 87.7085 68.9188 87.4668C68.7573 87.2251 68.6711 86.9409 68.6711 86.6503C68.6711 86.3596 68.7573 86.0754 68.9188 85.8337C69.0802 85.592 69.3097 85.4036 69.5782 85.2923C69.8467 85.181 70.1422 85.1518 70.4273 85.2084C70.7125 85.265 70.9744 85.4048 71.18 85.6103C71.3179 85.7461 71.4274 85.908 71.5021 86.0866C71.5769 86.2651 71.6153 86.4567 71.6153 86.6503C71.6153 86.8438 71.5769 87.0354 71.5021 87.214C71.4274 87.3925 71.3179 87.5544 71.18 87.6903Z" fill="white"/>
<path d="M142.37 231.43C141.548 231.459 140.754 231.73 140.085 232.208C139.415 232.686 138.902 233.35 138.608 234.118C138.313 234.885 138.251 235.723 138.43 236.525C138.608 237.328 139.018 238.061 139.61 238.632C140.201 239.203 140.948 239.587 141.756 239.737C142.565 239.887 143.399 239.796 144.156 239.475C144.913 239.154 145.559 238.617 146.013 237.931C146.467 237.246 146.71 236.442 146.71 235.62C146.701 235.06 146.581 234.507 146.358 233.993C146.135 233.479 145.813 233.014 145.409 232.624C145.006 232.235 144.53 231.929 144.009 231.724C143.487 231.519 142.93 231.419 142.37 231.43ZM142.37 238.34C141.834 238.322 141.315 238.147 140.878 237.836C140.441 237.525 140.105 237.092 139.912 236.591C139.719 236.091 139.679 235.544 139.795 235.021C139.911 234.497 140.179 234.019 140.565 233.647C140.951 233.274 141.438 233.024 141.966 232.927C142.493 232.829 143.038 232.89 143.531 233.1C144.025 233.311 144.445 233.662 144.74 234.11C145.035 234.558 145.192 235.083 145.19 235.62C145.184 235.984 145.105 236.343 144.96 236.676C144.815 237.01 144.605 237.312 144.344 237.564C144.082 237.817 143.773 238.015 143.434 238.148C143.095 238.281 142.734 238.347 142.37 238.34Z" fill="white"/>
<path d="M144.09 235.62C144.102 235.963 144.012 236.301 143.83 236.591C143.648 236.882 143.384 237.112 143.071 237.251C142.758 237.391 142.411 237.433 142.073 237.374C141.736 237.315 141.424 237.156 141.177 236.918C140.93 236.68 140.76 236.374 140.689 236.038C140.618 235.703 140.648 235.354 140.776 235.037C140.905 234.719 141.125 234.446 141.409 234.255C141.693 234.063 142.028 233.96 142.37 233.96C142.818 233.955 143.249 234.126 143.571 234.437C143.893 234.748 144.08 235.173 144.09 235.62Z" fill="white"/>
<path opacity="0.4" d="M127.5 115.89L118.35 132.94L141.75 139.87L154.67 127C145.402 123.837 136.329 120.127 127.5 115.89Z" fill="white"/>
<path opacity="0.4" d="M168.84 101.18V112.82L157.39 124.3C149.69 121.65 142.09 118.79 134.69 115.47C132.82 114.64 130.96 113.77 129.13 112.87L135.36 101.18H168.84Z" fill="white"/>
<path opacity="0.4" d="M111.24 143.64L132.97 150.71L122.1 172.65L100.05 165.81L111.24 143.64Z" fill="white"/>
<path opacity="0.4" d="M133 181.41C133.19 180.82 143.68 159.87 143.68 159.87L159.22 164.54L161.96 188.23L133 181.41Z" fill="white"/>
<path opacity="0.4" d="M147.46 155.67L163.74 159.87L165.05 142.03L150.35 149.79L147.46 155.67Z" fill="white"/>
<path opacity="0.4" d="M101.16 213.9C101.49 213.64 108.71 192.17 108.71 192.17L142.37 197.89L136.76 226.55L101.16 213.9Z" fill="white"/>
<path opacity="0.4" d="M83.0502 201.63L93.2002 204.86L88.1202 213.86C88.1202 213.86 77.4302 211.49 77.4302 210.8C77.4302 210.11 83.0502 201.63 83.0502 201.63Z" fill="white"/>
<path opacity="0.4" d="M83.6101 228.81C83.3601 229.4 77.1901 271.81 77.1901 271.81H53.6401L54.3401 257.38L68.6001 225.68L83.6101 228.81Z" fill="white"/>
<path opacity="0.4" d="M168.84 249.73V267.62L143.09 268.62L120.71 252.53C120.71 252.53 124.56 241.83 125.71 238.43L168.84 249.73Z" fill="white"/>
<path opacity="0.4" d="M122.27 237.47L102.94 232.39L100.19 241.56L117.69 250.69C117.69 250.69 122.27 238.34 122.27 237.47Z" fill="white"/>
<path opacity="0.4" d="M168.84 213.02V232.56L151.05 228.81L154.67 210.32L168.84 213.02Z" fill="white"/>
<path opacity="0.4" d="M62.3999 175.57L68.0399 163.13L83.7499 167.6L77.4299 180.6L62.3999 175.57Z" fill="white"/>
<path opacity="0.4" d="M76.71 132.29L84.46 118.75L105.47 124.63L98.42 139.09L76.71 132.29Z" fill="white"/>
<path opacity="0.4" d="M118.7 101.18C116.7 104.98 114.24 109.81 113.84 110.12C113.44 110.43 87.46 104.07 76 101.18H118.7Z" fill="white"/>
<path opacity="0.4" d="M68.0301 114.78L53.6401 143.8V111.17L68.0301 114.78Z" fill="white"/>
<path d="M144.09 230.58H143.93C143.702 230.541 143.498 230.415 143.36 230.229C143.222 230.042 143.161 229.81 143.19 229.58L149.44 194.74C133.169 189.952 116.639 186.092 99.9303 183.18C99.7326 183.148 99.5504 183.053 99.4103 182.91L88.8603 171.91C88.7345 171.779 88.6532 171.612 88.6281 171.433C88.6029 171.253 88.6352 171.07 88.7203 170.91L101 148.12L62.2903 139.67C62.1744 139.648 62.0643 139.602 61.9665 139.536C61.8686 139.47 61.785 139.385 61.7206 139.286C61.6562 139.187 61.6124 139.077 61.5917 138.96C61.5711 138.844 61.574 138.725 61.6003 138.61C61.6198 138.53 61.6501 138.452 61.6903 138.38L74.6903 115.44C74.8248 115.242 75.0259 115.099 75.2572 115.036C75.4884 114.974 75.7343 114.997 75.9503 115.1C76.0551 115.155 76.1476 115.231 76.2224 115.323C76.2971 115.415 76.3524 115.522 76.3851 115.636C76.4178 115.75 76.4271 115.869 76.4126 115.987C76.398 116.104 76.3598 116.218 76.3003 116.32L63.7903 138.24L102.48 146.69C102.595 146.714 102.705 146.76 102.802 146.827C102.899 146.893 102.982 146.978 103.046 147.076C103.11 147.175 103.154 147.285 103.176 147.401C103.197 147.516 103.195 147.635 103.17 147.75C103.157 147.825 103.13 147.896 103.09 147.96L90.6003 171.15L100.5 181.48C117.453 184.445 134.221 188.385 150.72 193.28C150.931 193.339 151.112 193.474 151.228 193.659C151.345 193.843 151.388 194.065 151.35 194.28L145 229.84C144.96 230.051 144.847 230.241 144.68 230.376C144.514 230.512 144.305 230.584 144.09 230.58Z" fill="white"/>
<path d="M79.6099 104C78.6753 103.084 77.4187 102.571 76.1099 102.571C74.8012 102.571 73.5446 103.084 72.6099 104C71.6938 104.935 71.1807 106.191 71.1807 107.5C71.1807 108.809 71.6938 110.065 72.6099 111L76.1099 114.5L79.6099 111C80.5261 110.065 81.0392 108.809 81.0392 107.5C81.0392 106.191 80.5261 104.935 79.6099 104ZM77.6099 109.08C77.2983 109.392 76.9009 109.605 76.4682 109.692C76.0355 109.778 75.5869 109.734 75.1791 109.566C74.7713 109.397 74.4227 109.111 74.1774 108.745C73.9322 108.378 73.8013 107.946 73.8013 107.505C73.8013 107.064 73.9322 106.632 74.1774 106.266C74.4227 105.899 74.7713 105.613 75.1791 105.444C75.5869 105.276 76.0355 105.232 76.4682 105.318C76.9009 105.405 77.2983 105.618 77.6099 105.93C77.8236 106.135 77.9944 106.38 78.1122 106.652C78.2301 106.923 78.2927 107.216 78.2964 107.512C78.3002 107.808 78.2449 108.101 78.1339 108.376C78.0229 108.65 77.8584 108.9 77.6499 109.11L77.6099 109.08Z" fill="white"/>
<path d="M135.36 105.65H93.3501C91.268 105.65 89.5801 107.338 89.5801 109.42V123.71C89.5801 125.792 91.268 127.48 93.3501 127.48H135.36C137.442 127.48 139.13 125.792 139.13 123.71V109.42C139.13 107.338 137.442 105.65 135.36 105.65Z" fill="white"/>
<path d="M101.19 116.22C102.853 116.22 104.2 114.872 104.2 113.21C104.2 111.548 102.853 110.2 101.19 110.2C99.5278 110.2 98.1802 111.548 98.1802 113.21C98.1802 114.872 99.5278 116.22 101.19 116.22Z" fill="#00AFF5"/>
<path d="M101.19 116.57C99.9162 116.573 98.6953 117.081 97.7954 117.982C96.8955 118.884 96.3901 120.106 96.3901 121.38H106C106 120.748 105.876 120.123 105.634 119.539C105.392 118.956 105.038 118.426 104.591 117.979C104.145 117.532 103.614 117.178 103.031 116.936C102.447 116.694 101.822 116.57 101.19 116.57Z" fill="#00AFF5"/>
<path d="M114.64 116.22C115.233 116.22 115.813 116.044 116.307 115.714C116.8 115.385 117.185 114.916 117.412 114.368C117.639 113.82 117.698 113.217 117.582 112.635C117.467 112.053 117.181 111.518 116.761 111.099C116.342 110.679 115.807 110.393 115.225 110.278C114.643 110.162 114.04 110.221 113.492 110.448C112.944 110.675 112.475 111.06 112.146 111.553C111.816 112.047 111.64 112.627 111.64 113.22C111.64 114.016 111.956 114.779 112.519 115.341C113.081 115.904 113.844 116.22 114.64 116.22Z" fill="#00AFF5"/>
<path d="M114.64 116.57C113.365 116.573 112.143 117.08 111.242 117.982C110.34 118.883 109.833 120.105 109.83 121.38H119.45C119.45 120.104 118.943 118.881 118.041 117.979C117.139 117.077 115.916 116.57 114.64 116.57Z" fill="#00AFF5"/>
<path d="M128.09 116.47C127.445 116.47 126.815 116.279 126.279 115.921C125.743 115.562 125.325 115.053 125.078 114.458C124.831 113.862 124.767 113.206 124.893 112.574C125.019 111.942 125.329 111.361 125.785 110.905C126.241 110.449 126.822 110.138 127.454 110.013C128.086 109.887 128.742 109.951 129.338 110.198C129.933 110.445 130.442 110.863 130.801 111.399C131.159 111.935 131.35 112.565 131.35 113.21C131.35 114.075 131.007 114.904 130.395 115.515C129.784 116.126 128.955 116.47 128.09 116.47ZM128.09 110.47C127.544 110.47 127.011 110.632 126.557 110.935C126.103 111.238 125.749 111.669 125.54 112.174C125.331 112.678 125.277 113.233 125.383 113.768C125.49 114.304 125.752 114.796 126.138 115.182C126.524 115.568 127.016 115.83 127.552 115.937C128.087 116.043 128.642 115.989 129.146 115.78C129.651 115.571 130.082 115.217 130.385 114.763C130.688 114.309 130.85 113.776 130.85 113.23C130.851 112.866 130.781 112.506 130.643 112.169C130.505 111.833 130.302 111.526 130.046 111.268C129.79 111.01 129.485 110.805 129.149 110.665C128.814 110.524 128.454 110.451 128.09 110.45V110.47Z" fill="#00AFF5"/>
<path d="M133.15 121.63H123V121.38C123 120.038 123.533 118.751 124.482 117.802C125.431 116.853 126.718 116.32 128.06 116.32C129.402 116.32 130.689 116.853 131.638 117.802C132.587 118.751 133.12 120.038 133.12 121.38L133.15 121.63ZM123.54 121.13H132.64C132.563 119.975 132.051 118.893 131.206 118.102C130.361 117.312 129.247 116.872 128.09 116.872C126.933 116.872 125.819 117.312 124.974 118.102C124.129 118.893 123.617 119.975 123.54 121.13Z" fill="#00AFF5"/>
<path d="M91.8802 105.65H83.2603C83.2603 105.65 90.4803 111.45 90.6503 111.45C90.8203 111.45 91.8802 105.65 91.8802 105.65Z" fill="white"/>
<path opacity="0.4" d="M83.6098 271.77C82.8698 271.77 89.4498 257.64 89.4098 257.37C89.2298 256.24 113.72 271.77 113.72 271.77H83.6098Z" fill="white"/>
<path d="M372.66 74.55C379.731 67.6918 389.216 63.8898 399.067 63.9647C408.917 64.0396 418.343 67.9855 425.309 74.9505C432.276 81.9154 436.223 91.3406 436.3 101.191C436.377 111.042 432.577 120.527 425.72 127.6L404.53 148.8C403.116 150.213 401.199 151.007 399.2 151.007C397.201 151.007 395.284 150.213 393.87 148.8L372.66 127.59C365.63 120.555 361.681 111.016 361.681 101.07C361.681 91.1243 365.63 81.5855 372.66 74.55ZM399.19 118.55C402.635 118.55 406.003 117.528 408.868 115.614C411.733 113.7 413.965 110.979 415.284 107.796C416.602 104.613 416.947 101.111 416.275 97.7315C415.603 94.3524 413.944 91.2484 411.508 88.8122C409.071 86.376 405.967 84.7169 402.588 84.0447C399.209 83.3726 395.707 83.7175 392.524 85.036C389.34 86.3545 386.62 88.5873 384.706 91.452C382.792 94.3167 381.77 97.6847 381.77 101.13C381.78 105.744 383.62 110.166 386.886 113.425C390.151 116.685 394.576 118.517 399.19 118.52V118.55Z" fill="#00AFF5"/>
<path d="M596.57 146.22H595.57V109.89H435.8V108.89H596.57V146.22Z" fill="#00AFF5"/>
<path d="M596.07 148.16C598.273 148.16 600.06 146.374 600.06 144.17C600.06 141.966 598.273 140.18 596.07 140.18C593.866 140.18 592.08 141.966 592.08 144.17C592.08 146.374 593.866 148.16 596.07 148.16Z" fill="#00AFF5"/>
<path d="M710.778 124.5C720.404 118.983 723.735 106.706 718.218 97.0802C712.7 87.4539 700.424 84.1231 690.798 89.6406C681.171 95.158 677.84 107.434 683.358 117.061C688.875 126.687 701.152 130.018 710.778 124.5Z" fill="#00AFF5"/>
<path d="M687.34 115.4L682.2 114.82L680.09 121L686.49 120.67L687.34 115.4Z" fill="#00AFF5"/>
<path d="M725.22 106.34C725.156 106.335 725.095 106.305 725.053 106.257C725.01 106.208 724.987 106.145 724.99 106.08C725.127 102.85 724.469 99.6354 723.075 96.7185C721.68 93.8016 719.591 91.2715 716.99 89.3502C716.958 89.3338 716.93 89.3106 716.908 89.2822C716.885 89.2539 716.869 89.221 716.861 89.1859C716.852 89.1509 716.852 89.1144 716.859 89.079C716.866 89.0436 716.88 89.0102 716.902 88.9809C716.923 88.9517 716.95 88.9275 716.981 88.9098C717.013 88.8921 717.048 88.8814 717.084 88.8785C717.12 88.8756 717.156 88.8805 717.19 88.8929C717.224 88.9053 717.255 88.9248 717.28 88.9502C719.952 90.9177 722.099 93.5117 723.532 96.5041C724.966 99.4964 725.641 102.795 725.5 106.11C725.498 106.144 725.488 106.177 725.473 106.207C725.457 106.237 725.436 106.264 725.409 106.285C725.383 106.307 725.353 106.323 725.32 106.332C725.288 106.342 725.254 106.344 725.22 106.34Z" fill="#00AFF5"/>
<path d="M724.4 112.24C724.368 112.251 724.332 112.251 724.3 112.24C724.269 112.229 724.241 112.212 724.217 112.19C724.194 112.167 724.175 112.14 724.163 112.11C724.15 112.079 724.145 112.047 724.146 112.014C724.147 111.981 724.155 111.949 724.17 111.92C724.535 111.025 724.715 110.066 724.7 109.1C724.697 109.067 724.701 109.035 724.712 109.004C724.723 108.973 724.74 108.944 724.763 108.921C724.786 108.897 724.813 108.878 724.844 108.866C724.874 108.854 724.907 108.849 724.94 108.85C724.973 108.847 725.007 108.852 725.038 108.862C725.069 108.873 725.098 108.89 725.123 108.913C725.147 108.936 725.167 108.963 725.18 108.993C725.193 109.024 725.2 109.057 725.2 109.09C725.214 110.118 725.02 111.139 724.63 112.09C724.61 112.135 724.578 112.173 724.537 112.2C724.497 112.226 724.449 112.24 724.4 112.24Z" fill="#00AFF5"/>
<path d="M701.28 107.14C702.071 107.14 702.844 106.906 703.502 106.466C704.16 106.026 704.673 105.402 704.976 104.671C705.278 103.94 705.357 103.136 705.203 102.36C705.049 101.584 704.668 100.871 704.108 100.312C703.549 99.7523 702.836 99.3713 702.06 99.217C701.284 99.0627 700.48 99.1419 699.749 99.4446C699.018 99.7474 698.394 100.26 697.954 100.918C697.515 101.576 697.28 102.349 697.28 103.14C697.28 104.201 697.701 105.218 698.452 105.969C699.202 106.719 700.219 107.14 701.28 107.14Z" fill="white"/>
<path d="M701.28 107.61C700.435 107.61 699.598 107.777 698.817 108.101C698.036 108.424 697.327 108.899 696.73 109.497C696.133 110.095 695.659 110.805 695.337 111.586C695.014 112.368 694.849 113.205 694.85 114.05H707.72C707.72 112.342 707.042 110.704 705.834 109.496C704.626 108.289 702.988 107.61 701.28 107.61Z" fill="white"/>
<path d="M297.043 151.567C301.138 141.255 296.099 129.576 285.787 125.481C275.475 121.385 263.795 126.425 259.7 136.737C255.605 147.049 260.644 158.728 270.956 162.824C281.268 166.919 292.948 161.879 297.043 151.567Z" fill="#00AFF5"/>
<path d="M286.27 157.79L284.88 162.78L290.64 165.84L291.34 159.47L286.27 157.79Z" fill="#00AFF5"/>
<path d="M302.82 143.46C302.753 143.455 302.69 143.424 302.646 143.374C302.601 143.323 302.577 143.257 302.58 143.19C302.719 139.961 302.062 136.747 300.667 133.832C299.272 130.916 297.182 128.388 294.58 126.47C294.526 126.432 294.489 126.373 294.478 126.307C294.466 126.242 294.482 126.174 294.52 126.12C294.559 126.066 294.617 126.029 294.683 126.018C294.748 126.006 294.816 126.022 294.87 126.06C297.543 128.027 299.69 130.621 301.124 133.613C302.557 136.606 303.232 139.905 303.09 143.22C303.085 143.287 303.054 143.35 303.004 143.395C302.953 143.439 302.888 143.463 302.82 143.46Z" fill="#00AFF5"/>
<path d="M302 149.36H301.9C301.841 149.332 301.794 149.282 301.77 149.221C301.746 149.159 301.746 149.091 301.77 149.03C302.138 148.14 302.319 147.183 302.3 146.22C302.3 146.154 302.326 146.09 302.373 146.043C302.42 145.996 302.484 145.97 302.55 145.97C302.616 145.97 302.68 145.996 302.727 146.043C302.774 146.09 302.8 146.154 302.8 146.22C302.816 147.248 302.622 148.269 302.23 149.22C302.209 149.263 302.176 149.299 302.136 149.324C302.095 149.348 302.048 149.361 302 149.36Z" fill="#00AFF5"/>
<path d="M278.38 144.75C280.606 144.75 282.41 142.946 282.41 140.72C282.41 138.494 280.606 136.69 278.38 136.69C276.154 136.69 274.35 138.494 274.35 140.72C274.35 142.946 276.154 144.75 278.38 144.75Z" fill="white"/>
<path d="M278.38 145.22C276.675 145.22 275.039 145.897 273.833 147.103C272.628 148.309 271.95 149.945 271.95 151.65H284.82C284.82 150.805 284.654 149.968 284.33 149.187C284.006 148.406 283.531 147.697 282.933 147.1C282.335 146.503 281.625 146.029 280.844 145.707C280.063 145.384 279.225 145.219 278.38 145.22Z" fill="white"/>
<path d="M705.8 363.36L715.64 355.61C721.92 362.76 726.99 369.88 730.81 374.13L728.44 379.7L722 378.42C716.901 373.086 711.492 368.057 705.8 363.36Z" fill="#B97964"/>
<path d="M715.23 373.63L719.06 371.19C722.98 373.19 723.76 371.59 724.24 368.07C725.24 367.23 726.38 368.32 726.69 368.6L733.6 374.85C733.88 375.1 734.05 375.45 734.073 375.825C734.095 376.2 733.968 376.569 733.72 376.85C733.625 376.953 733.518 377.044 733.4 377.12L724.21 383L711.33 391.2C707.82 393.44 704.84 390.37 706.08 389.12C711.67 383.54 715.08 378.7 715.86 375.52C716 374.92 715.48 374.91 715.23 373.63Z" fill="#00AFF5"/>
<path d="M718 377.28C717.964 377.289 717.926 377.289 717.89 377.28C717.401 377.055 716.869 376.939 716.33 376.939C715.792 376.939 715.259 377.055 714.77 377.28C714.74 377.293 714.707 377.3 714.674 377.301C714.641 377.302 714.609 377.296 714.578 377.284C714.547 377.272 714.519 377.254 714.496 377.231C714.472 377.208 714.453 377.18 714.44 377.15C714.425 377.121 714.416 377.089 714.414 377.056C714.412 377.023 714.417 376.99 714.428 376.959C714.44 376.928 714.457 376.9 714.48 376.876C714.502 376.852 714.53 376.833 714.56 376.82C715.117 376.565 715.723 376.434 716.335 376.434C716.948 376.434 717.553 376.565 718.11 376.82C718.169 376.848 718.215 376.899 718.238 376.96C718.26 377.022 718.257 377.09 718.23 377.15C718.205 377.189 718.171 377.221 718.131 377.244C718.091 377.267 718.046 377.279 718 377.28Z" fill="#263238"/>
<path d="M717.1 379.68H716.99C716.5 379.456 715.968 379.339 715.43 379.339C714.891 379.339 714.359 379.456 713.87 379.68C713.841 379.695 713.808 379.704 713.776 379.706C713.743 379.708 713.71 379.703 713.679 379.692C713.648 379.681 713.62 379.663 713.596 379.641C713.572 379.618 713.553 379.591 713.54 379.56C713.525 379.531 713.516 379.499 713.514 379.466C713.512 379.433 713.517 379.4 713.528 379.369C713.539 379.338 713.557 379.31 713.58 379.286C713.602 379.262 713.63 379.243 713.66 379.23C714.216 378.973 714.822 378.84 715.435 378.84C716.048 378.84 716.654 378.973 717.21 379.23C717.269 379.258 717.315 379.309 717.338 379.371C717.36 379.432 717.357 379.501 717.33 379.56C717.305 379.598 717.27 379.629 717.23 379.65C717.19 379.671 717.145 379.681 717.1 379.68Z" fill="#263238"/>
<path d="M715.64 382.15C715.607 382.159 715.573 382.159 715.54 382.15C715.048 381.928 714.515 381.813 713.975 381.813C713.435 381.813 712.902 381.928 712.41 382.15C712.38 382.164 712.347 382.172 712.314 382.173C712.281 382.174 712.248 382.169 712.217 382.157C712.186 382.145 712.157 382.128 712.133 382.105C712.108 382.083 712.089 382.055 712.075 382.025C712.061 381.995 712.054 381.962 712.052 381.929C712.051 381.896 712.057 381.863 712.068 381.832C712.08 381.801 712.097 381.772 712.12 381.748C712.143 381.724 712.17 381.704 712.2 381.69C712.757 381.435 713.363 381.304 713.975 381.304C714.588 381.304 715.193 381.435 715.75 381.69C715.78 381.703 715.808 381.722 715.83 381.746C715.853 381.77 715.871 381.798 715.882 381.829C715.893 381.86 715.898 381.893 715.896 381.926C715.894 381.959 715.885 381.991 715.87 382.02C715.849 382.062 715.815 382.097 715.775 382.12C715.734 382.143 715.687 382.153 715.64 382.15Z" fill="#263238"/>
<path opacity="0.7" d="M733.72 376.84C733.625 376.944 733.518 377.034 733.4 377.11L724.21 383L711.33 391.2C710.663 391.697 709.858 391.974 709.026 391.992C708.194 392.01 707.378 391.768 706.69 391.3C707.23 390.96 732.94 374.86 733.2 374.53L733.7 375.01C733.924 375.261 734.05 375.585 734.054 375.922C734.057 376.258 733.939 376.585 733.72 376.84Z" fill="white"/>
<path d="M647.73 363.08L663 372.49C661.86 383.94 659 394.34 660.11 399.96L655.19 403.49L648.48 396.49C648.48 396.49 649.05 376 647.73 363.08Z" fill="#B97964"/>
<path d="M647.87 391.44L652.41 391.35C654.73 395.07 656.22 394.13 658.41 391.35C659.73 391.17 660.11 392.67 660.23 393.08L662.89 402C663 402.358 662.963 402.745 662.789 403.076C662.615 403.408 662.317 403.657 661.96 403.77C661.827 403.809 661.689 403.83 661.55 403.83L650.65 404.06L635.39 404.39C631.23 404.47 630.28 400.3 631.99 399.88C639.66 398.01 645.06 395.63 647.4 393.33C647.87 393 647.41 392.67 647.87 391.44Z" fill="#00AFF5"/>
<path d="M648.47 396C648.428 396.002 648.387 395.992 648.35 395.973C648.314 395.954 648.282 395.925 648.26 395.89C647.962 395.442 647.569 395.064 647.11 394.782C646.65 394.501 646.135 394.323 645.6 394.26C645.567 394.257 645.535 394.246 645.506 394.23C645.477 394.214 645.452 394.192 645.431 394.166C645.411 394.14 645.396 394.11 645.387 394.078C645.378 394.047 645.376 394.013 645.38 393.98C645.382 393.947 645.392 393.914 645.407 393.885C645.423 393.855 645.445 393.829 645.471 393.808C645.497 393.787 645.528 393.772 645.56 393.764C645.593 393.756 645.627 393.755 645.66 393.76C646.264 393.837 646.845 394.042 647.363 394.363C647.88 394.684 648.323 395.113 648.66 395.62C648.695 395.675 648.707 395.741 648.694 395.804C648.68 395.868 648.643 395.924 648.59 395.96C648.554 395.985 648.513 395.998 648.47 396Z" fill="#263238"/>
<path d="M646.45 397.62C646.409 397.62 646.368 397.609 646.332 397.59C646.295 397.571 646.264 397.544 646.24 397.51C645.94 397.062 645.547 396.683 645.089 396.4C644.63 396.118 644.115 395.937 643.58 395.87C643.516 395.862 643.456 395.83 643.415 395.78C643.374 395.729 643.354 395.665 643.36 395.6C643.362 395.566 643.372 395.534 643.387 395.504C643.403 395.475 643.425 395.448 643.451 395.428C643.478 395.407 643.508 395.392 643.541 395.384C643.573 395.376 643.607 395.374 643.64 395.38C644.243 395.456 644.823 395.661 645.34 395.98C645.858 396.299 646.301 396.725 646.64 397.23C646.675 397.286 646.688 397.354 646.675 397.419C646.662 397.484 646.624 397.542 646.57 397.58C646.535 397.604 646.493 397.618 646.45 397.62Z" fill="#263238"/>
<path d="M643.93 399C643.887 399.003 643.844 398.993 643.807 398.972C643.77 398.95 643.739 398.918 643.72 398.88C643.42 398.432 643.028 398.055 642.568 397.774C642.109 397.492 641.595 397.314 641.06 397.25C641.027 397.246 640.995 397.236 640.966 397.22C640.937 397.204 640.912 397.182 640.891 397.156C640.871 397.13 640.856 397.1 640.847 397.068C640.838 397.036 640.836 397.003 640.84 396.97C640.841 396.937 640.849 396.905 640.863 396.875C640.878 396.845 640.899 396.819 640.924 396.798C640.95 396.777 640.98 396.762 641.012 396.754C641.044 396.746 641.077 396.744 641.11 396.75C641.714 396.826 642.295 397.032 642.813 397.353C643.33 397.674 643.773 398.103 644.11 398.61C644.132 398.648 644.144 398.69 644.145 398.734C644.146 398.778 644.137 398.821 644.117 398.86C644.097 398.899 644.067 398.932 644.031 398.956C643.995 398.981 643.953 398.996 643.91 399H643.93Z" fill="#263238"/>
<path opacity="0.7" d="M662 403.79C661.867 403.83 661.729 403.85 661.59 403.85L650.69 404.08L635.43 404.41C634.603 404.484 633.773 404.298 633.057 403.879C632.34 403.459 631.771 402.827 631.43 402.07C632.06 402.07 662.43 401.66 662.79 401.51L662.97 402.18C663.032 402.521 662.968 402.872 662.789 403.169C662.611 403.465 662.33 403.686 662 403.79Z" fill="white"/>
<path d="M668.35 144.47C668.35 144.47 666.64 138.83 668.44 128.31L667.87 128.11C668.12 126.64 668.4 125.27 668.68 124.11C668.682 124.093 668.682 124.077 668.68 124.06L655.68 134.25C656.38 137.47 655.92 143.9 655.53 146.64C655.53 146.64 654.31 151.64 660.74 151.14C665.48 150.74 668.35 144.47 668.35 144.47Z" fill="#B97964"/>
<path opacity="0.2" d="M656 138.84L663.82 136.12C663.37 138.7 661.5 141.91 655.95 142.78C656.073 141.47 656.09 140.153 656 138.84Z" fill="black"/>
<path d="M668 117.26C668.06 126.2 668.27 131.26 664.07 136.08C657.76 143.35 646.74 140.08 644 131.34C641.54 123.44 641.85 110.15 650.35 106.09C652.233 105.192 654.314 104.787 656.396 104.911C658.479 105.036 660.496 105.686 662.259 106.802C664.022 107.918 665.473 109.462 666.477 111.291C667.481 113.12 668.005 115.174 668 117.26Z" fill="#B97964"/>
<path d="M668.43 106.47C666.87 101.65 654.57 102.47 651.31 105.17C650.82 105.58 658.31 108.75 657.9 108.62L661.41 109.57C661.93 109.42 663.01 109.96 663.66 111.57C663.66 111.57 664.2 125.25 668.34 128.94C671.34 127.21 671.16 121.78 671.92 118.5C673.05 113.59 674.33 106.44 668.43 106.47Z" fill="#263238"/>
<path d="M672.05 124.44C671.785 125.519 671.308 126.534 670.647 127.427C669.986 128.319 669.154 129.072 668.2 129.64C665.63 131.14 664.44 128.3 664.5 125.48C664.56 122.94 665.09 119.81 667.98 119.48C670.87 119.15 672.69 121.76 672.05 124.44Z" fill="#B97964"/>
<path d="M655.46 120.7C655.52 121.61 655.09 122.37 654.46 122.41C653.83 122.45 653.33 121.73 653.27 120.82C653.21 119.91 653.64 119.14 654.27 119.11C654.9 119.08 655.4 119.79 655.46 120.7Z" fill="#263238"/>
<path d="M646.53 121.48C646.59 122.39 646.16 123.16 645.53 123.2C644.9 123.24 644.4 122.52 644.34 121.61C644.28 120.7 644.71 119.93 645.34 119.9C645.97 119.87 646.47 120.57 646.53 121.48Z" fill="#263238"/>
<path d="M649.41 120.78C649.41 120.78 646.83 125.5 646.03 127.41C647.38 128.47 649.53 127.79 649.53 127.79L649.41 120.78Z" fill="#A24E3F"/>
<path d="M657.39 116.25C657.325 116.289 657.251 116.309 657.175 116.309C657.099 116.309 657.025 116.289 656.96 116.25C656.523 115.936 656.019 115.728 655.487 115.645C654.956 115.562 654.412 115.604 653.9 115.77C653.795 115.813 653.678 115.813 653.573 115.77C653.468 115.727 653.384 115.644 653.34 115.54C653.317 115.489 653.304 115.434 653.303 115.378C653.301 115.322 653.311 115.266 653.332 115.214C653.352 115.161 653.383 115.114 653.422 115.074C653.461 115.034 653.508 115.002 653.56 114.98C654.206 114.761 654.894 114.699 655.569 114.798C656.243 114.897 656.884 115.155 657.44 115.55C657.487 115.58 657.528 115.62 657.56 115.666C657.591 115.713 657.613 115.765 657.625 115.82C657.636 115.875 657.636 115.931 657.625 115.986C657.614 116.041 657.592 116.094 657.56 116.14C657.512 116.189 657.454 116.226 657.39 116.25Z" fill="#263238"/>
<path d="M652.71 130.87C652.621 130.856 652.54 130.81 652.482 130.741C652.423 130.672 652.391 130.585 652.391 130.495C652.391 130.405 652.423 130.318 652.482 130.249C652.54 130.18 652.621 130.135 652.71 130.12C653.382 130.037 654.03 129.816 654.613 129.472C655.196 129.128 655.702 128.668 656.1 128.12C656.134 128.085 656.176 128.057 656.221 128.037C656.267 128.018 656.316 128.008 656.365 128.008C656.414 128.008 656.463 128.018 656.509 128.037C656.554 128.057 656.595 128.085 656.63 128.12C656.699 128.191 656.738 128.286 656.738 128.385C656.738 128.484 656.699 128.579 656.63 128.65C656.162 129.262 655.575 129.773 654.905 130.152C654.235 130.532 653.495 130.773 652.73 130.86L652.71 130.87Z" fill="#263238"/>
<path opacity="0.2" d="M666 125.31C665.967 125.31 665.934 125.303 665.903 125.29C665.873 125.277 665.845 125.257 665.823 125.233C665.8 125.208 665.783 125.179 665.772 125.148C665.762 125.117 665.757 125.083 665.76 125.05C665.79 124.233 666.039 123.439 666.48 122.75C666.841 122.141 667.398 121.672 668.06 121.42C668.41 121.304 668.786 121.294 669.141 121.39C669.497 121.486 669.816 121.684 670.06 121.96C670.106 122.007 670.132 122.07 670.132 122.135C670.132 122.2 670.106 122.263 670.06 122.31C670.038 122.334 670.011 122.353 669.98 122.366C669.95 122.379 669.918 122.386 669.885 122.386C669.852 122.386 669.82 122.379 669.79 122.366C669.76 122.353 669.733 122.334 669.71 122.31C669.528 122.109 669.29 121.966 669.026 121.9C668.763 121.834 668.486 121.848 668.23 121.94C667.682 122.149 667.223 122.541 666.93 123.05C666.533 123.666 666.309 124.378 666.28 125.11C666.268 125.173 666.232 125.229 666.18 125.266C666.128 125.303 666.064 125.319 666 125.31Z" fill="black"/>
<path d="M642.33 117.91C642.246 117.892 642.167 117.854 642.1 117.8C642.022 117.72 641.978 117.612 641.978 117.5C641.978 117.388 642.022 117.28 642.1 117.2C642.536 116.684 643.09 116.282 643.715 116.026C644.34 115.77 645.017 115.668 645.69 115.73C645.746 115.737 645.801 115.756 645.85 115.785C645.899 115.814 645.941 115.852 645.975 115.898C646.009 115.944 646.033 115.996 646.045 116.051C646.058 116.107 646.06 116.164 646.05 116.22C646.043 116.275 646.024 116.328 645.996 116.376C645.968 116.424 645.93 116.465 645.885 116.498C645.84 116.531 645.789 116.554 645.735 116.566C645.681 116.579 645.625 116.58 645.57 116.57C645.036 116.525 644.5 116.611 644.007 116.82C643.514 117.029 643.079 117.355 642.74 117.77C642.689 117.827 642.625 117.869 642.553 117.894C642.482 117.918 642.405 117.924 642.33 117.91Z" fill="#263238"/>
<path d="M670 102.48C669.17 100.54 666.55 100.32 664.63 100.89C664.51 98.45 661.22 97.31 659.23 97.55C658.204 97.5646 657.223 97.9728 656.49 98.69C656.65 98.69 655.75 97.54 655.22 97.09C654.255 96.2745 653.067 95.7671 651.81 95.6334C650.553 95.4997 649.285 95.7458 648.17 96.34C647.062 97.0088 646.165 97.976 645.582 99.1308C644.998 100.286 644.751 101.582 644.87 102.87C644.522 102.584 644.12 102.371 643.688 102.242C643.257 102.114 642.804 102.072 642.356 102.121C641.908 102.169 641.474 102.306 641.08 102.524C640.686 102.742 640.339 103.037 640.06 103.39C639.537 104.167 639.315 105.108 639.434 106.037C639.554 106.967 640.007 107.821 640.71 108.44C639.934 108.601 639.254 109.063 638.817 109.725C638.38 110.386 638.223 111.193 638.38 111.97C638.546 112.738 639.007 113.41 639.663 113.842C640.319 114.274 641.119 114.431 641.89 114.28C642.14 116.07 642.52 118.28 642.77 120.1L644.6 113.27C645.8 112.73 645.99 112.14 646.12 110.77C647.18 112.39 648.6 112.13 650.43 111.9C651.366 111.758 652.245 111.361 652.97 110.753C653.695 110.144 654.238 109.347 654.54 108.45C655.051 109.309 655.787 110.012 656.668 110.484C657.549 110.957 658.542 111.18 659.54 111.13C660.528 110.996 661.43 110.499 662.07 109.735C662.71 108.971 663.041 107.996 663 107C663.637 107.797 664.54 108.337 665.543 108.521C666.546 108.705 667.582 108.52 668.46 108C669.298 107.385 669.905 106.507 670.184 105.506C670.463 104.505 670.398 103.44 670 102.48Z" fill="#263238"/>
<path d="M683.53 143.9C683.53 143.9 691.53 144.12 694.68 152.99C697.68 161.16 705.12 179.18 705.12 179.18L687.21 184.42L680.08 163.09L683.53 143.9Z" fill="#00AFF5"/>
<path d="M654.29 229L665.08 252C665.08 252 647.94 303.59 646.91 309C645.88 314.41 645.4 382.12 645.4 382.12H664.47L672 316C672 316 695.15 259.88 696.85 255.32C700.03 246.78 696.7 235.32 696.7 235.32L690.8 226.82L654.29 229Z" fill="#263238"/>
<path d="M643.81 240.53C643.81 242.62 651.25 314.08 652.47 314.34C653.69 314.6 707.59 373.54 707.59 373.54L722.89 360.1L683.35 306.48L679 258.3L677.43 228L643 230.57L643.81 240.53Z" fill="#263238"/>
<path opacity="0.4" d="M669.97 332.98L670.92 316.19L682 291.64L673.68 317.6L672.89 335.37L669.97 332.98Z" fill="black"/>
<path opacity="0.4" d="M649.99 298.04L665.08 252.01L659.82 247.21L661.49 253.81L649.33 292.58L649.99 298.04Z" fill="black"/>
<path d="M597.83 166.28L621.18 187.71L632.06 167.45C632.06 167.45 643.94 179.18 643.53 179.35C643.12 179.52 629.53 209.24 619.76 203.91C609.99 198.58 593.42 171.76 593.42 171.76L597.83 166.28Z" fill="#B97964"/>
<path opacity="0.2" d="M621.18 187.71C621.18 187.71 623.18 190.95 622.95 194.01C623.559 192.796 623.779 191.424 623.58 190.08C623.417 188.613 622.917 187.203 622.12 185.96L621.18 187.71Z" fill="black"/>
<path d="M642.67 149.22C649.05 152.49 651.61 164.11 637.91 192.13L621.55 179.5C624.17 172.5 626.83 168.88 631.03 160.39C637.68 147.22 642.67 149.22 642.67 149.22Z" fill="#00AFF5"/>
<path d="M642.47 148.8C646.97 147.8 664.85 143.12 683.97 143.92L694.08 215.16C694.08 215.16 696.08 224.5 698.73 233.75C680.51 244.3 655.23 246 641.67 240.25C641.85 240.53 641.42 232.64 640.84 221.08C639.84 200.71 638.3 168.93 638.77 150.38C638.79 149.93 642 148.9 642.47 148.8Z" fill="#00AFF5"/>
<path opacity="0.2" d="M639.39 189.03L638.75 165.99L635.84 190.53L637.91 192.13L639.39 189.03Z" fill="black"/>
<path opacity="0.2" d="M688.21 184.13L687.21 184.42L680.69 166.95L685.58 186.94L688.91 186.96L688.21 184.13Z" fill="black"/>
<path d="M600.08 170C600.08 170 601.87 167.17 601.23 164.48C600.59 161.79 600.8 159.48 600.23 157.48C599.66 155.48 598.5 158.06 598.23 159.54C597.96 161.02 597.54 162.69 596.46 162.28C595.38 161.87 589.18 154.16 587.63 153.75C586.08 153.34 586.69 154.9 586.69 154.9C586.69 154.9 585.13 153.07 584.24 153.49C584.01 153.6 583.65 154.23 584.24 155.17C585.54 157.3 588.51 161.62 588.51 161.62C588.34 161.37 584.3 156.3 583.59 155.62C582.67 154.73 581.79 154.78 581.29 155.33C580.58 156.11 585.38 162.57 585.39 162.99C585.39 162.99 582.75 159.17 581.39 159.32C580.03 159.47 581.57 161.95 583.33 163.89C584.95 165.67 587.66 169.58 589.48 171.22C591.73 173.22 593.69 174.11 596.29 172.98C597.788 172.329 599.094 171.303 600.08 170Z" fill="#B97964"/>
<path opacity="0.3" d="M590.29 159.88C590.269 159.881 590.249 159.875 590.232 159.864C590.214 159.854 590.199 159.839 590.19 159.82C589.12 158.22 587.97 156.66 586.77 155.18C586.757 155.169 586.747 155.155 586.74 155.14C586.733 155.124 586.729 155.107 586.729 155.09C586.729 155.073 586.733 155.056 586.74 155.041C586.747 155.025 586.757 155.011 586.77 155C586.781 154.989 586.794 154.98 586.809 154.974C586.824 154.968 586.839 154.965 586.855 154.965C586.871 154.965 586.887 154.968 586.901 154.974C586.916 154.98 586.929 154.989 586.94 155C588.15 156.49 589.3 158.06 590.38 159.66C590.401 159.685 590.413 159.717 590.413 159.75C590.413 159.783 590.401 159.815 590.38 159.84L590.29 159.88Z" fill="black"/>
<path opacity="0.3" d="M586.27 164.63C586.247 164.638 586.223 164.638 586.2 164.63C586.189 164.619 586.18 164.606 586.174 164.591C586.168 164.576 586.165 164.561 586.165 164.545C586.165 164.529 586.168 164.514 586.174 164.499C586.18 164.484 586.189 164.471 586.2 164.46C587.688 162.41 589.742 160.839 592.11 159.94C592.139 159.937 592.168 159.945 592.193 159.961C592.217 159.977 592.236 160.001 592.245 160.028C592.254 160.056 592.254 160.086 592.244 160.114C592.234 160.141 592.215 160.165 592.19 160.18C589.872 161.06 587.86 162.596 586.4 164.6C586.385 164.619 586.364 164.632 586.34 164.637C586.317 164.642 586.292 164.64 586.27 164.63Z" fill="black"/>
<path opacity="0.3" d="M595.79 169.21C595.771 169.209 595.752 169.204 595.735 169.195C595.718 169.187 595.702 169.175 595.69 169.16C595.058 168.316 594.74 167.278 594.791 166.225C594.842 165.171 595.259 164.169 595.97 163.39C595.995 163.369 596.027 163.357 596.06 163.357C596.093 163.357 596.125 163.369 596.15 163.39C596.173 163.414 596.186 163.446 596.186 163.48C596.186 163.513 596.173 163.546 596.15 163.57C595.476 164.304 595.08 165.251 595.031 166.246C594.982 167.242 595.282 168.223 595.88 169.02C595.891 169.031 595.9 169.044 595.906 169.059C595.912 169.074 595.915 169.089 595.915 169.105C595.915 169.121 595.912 169.136 595.906 169.151C595.9 169.166 595.891 169.179 595.88 169.19C595.853 169.207 595.821 169.214 595.79 169.21Z" fill="black"/>
<path d="M703.77 179.57C703.77 179.57 709.16 192.33 711.44 203.78C712.44 208.98 708.32 212.32 704.07 213.34C690.67 216.58 660.47 216.59 660.47 216.59L659.68 207.38L694.46 199.86L688.21 184.13L703.77 179.57Z" fill="#B97964"/>
<path d="M660.4 218.56L649 219.84C648.807 219.861 648.612 219.839 648.428 219.775C648.245 219.711 648.078 219.607 647.94 219.47L630.59 202.32C630.427 202.159 630.31 201.958 630.25 201.737C630.19 201.516 630.189 201.283 630.248 201.062C630.307 200.841 630.423 200.639 630.585 200.477C630.747 200.316 630.949 200.199 631.17 200.14L641.17 197.56C641.386 197.502 641.613 197.502 641.829 197.56C642.045 197.618 642.242 197.732 642.4 197.89L661.13 216.34C661.305 216.51 661.428 216.726 661.486 216.962C661.544 217.199 661.535 217.447 661.459 217.678C661.383 217.91 661.243 218.115 661.056 218.271C660.869 218.427 660.641 218.527 660.4 218.56Z" fill="#263238"/>
<path d="M661.46 207.43C661.46 207.43 661.14 206.09 656.1 204.55C652.27 203.38 648.46 199.8 647.84 199.92C647.22 200.04 646.55 202 648.14 203.72C649.73 205.44 651.38 206.42 650.96 207.08C649.96 208.67 637.48 207.37 637.26 208.73C637.04 210.09 639.43 213.99 646.1 216.59C652.77 219.19 661.93 216.59 661.93 216.59L661.46 207.43Z" fill="#B97964"/>
<path d="M598.54 359.06L72.6899 371.38V281.44H603.6L598.54 359.06Z" fill="#263238"/>
<path opacity="0.5" d="M598.54 359.06L72.6899 371.38V281.44H603.6L598.54 359.06Z" fill="black"/>
<path d="M52.46 304.52V350.13C52.4607 354.89 53.9853 359.525 56.8104 363.356C59.6355 367.187 63.6128 370.013 68.16 371.42L71.88 372.55C74.1664 373.266 76.5546 373.604 78.95 373.55L103.51 372.97C100.896 363.83 100.412 354.212 102.094 344.855C103.777 335.498 107.581 326.652 113.214 318.994C118.848 311.336 126.161 305.071 134.593 300.68C143.025 296.289 152.351 293.888 161.855 293.663C171.359 293.437 180.788 295.392 189.419 299.378C198.05 303.363 205.653 309.274 211.644 316.656C217.634 324.037 221.854 332.693 223.979 341.96C226.103 351.226 226.076 360.856 223.9 370.11L473.8 364.17C473.399 361.251 473.202 358.307 473.21 355.36C473.148 347.127 474.72 338.964 477.836 331.343C480.951 323.722 485.549 316.795 491.361 310.964C497.173 305.133 504.085 300.513 511.696 297.373C519.307 294.232 527.465 292.634 535.698 292.669C543.931 292.705 552.076 294.375 559.659 297.581C567.242 300.787 574.113 305.467 579.875 311.348C585.636 317.229 590.173 324.196 593.223 331.843C596.272 339.491 597.774 347.668 597.64 355.9C597.64 357.11 597.55 358.3 597.55 359.5C597.89 359.374 598.224 359.23 598.55 359.07L607.1 355.26C611.227 353.396 614.729 350.381 617.186 346.576C619.642 342.771 620.949 338.339 620.95 333.81V240.91C620.952 236.623 619.782 232.418 617.566 228.748C615.351 225.079 612.174 222.085 608.38 220.09L544.15 186.31C543.574 186.002 543.098 185.535 542.782 184.963C542.465 184.392 542.32 183.741 542.364 183.089C542.408 182.437 542.64 181.812 543.032 181.289C543.423 180.766 543.957 180.367 544.57 180.14L552.43 177.32C552.823 177.187 553.159 176.925 553.383 176.577C553.608 176.228 553.707 175.814 553.665 175.401C553.624 174.989 553.443 174.603 553.153 174.307C552.863 174.01 552.481 173.821 552.07 173.77C521.54 169.49 402.84 154 340.44 161.6C268.44 170.41 199.49 232.87 199.49 232.87C146.49 230.87 97.08 249.32 75.79 258.57C72.3929 260.056 69.3438 262.235 66.8382 264.968C64.3326 267.701 62.4258 270.927 61.24 274.44L54 296C53.0317 298.739 52.5116 301.616 52.46 304.52Z" fill="#00AFF5"/>
<path d="M473.87 364.15C473.5 361.409 473.32 358.646 473.33 355.88C473.33 354.47 473.33 353.08 473.46 351.69L428.27 333.2C425.623 332.128 422.77 331.663 419.92 331.84L262.74 342.16C260.171 342.31 257.662 342.991 255.37 344.16L225.51 359.52C225.299 363.079 224.794 366.614 224 370.09L473.87 364.15Z" fill="#263238"/>
<path d="M621 333.79V331.42L595.44 339.24C596.933 344.66 597.687 350.258 597.68 355.88C597.68 357.09 597.59 358.28 597.59 359.48C597.93 359.354 598.264 359.21 598.59 359.05L607.16 355.24C611.285 353.374 614.785 350.358 617.24 346.554C619.695 342.749 621 338.318 621 333.79Z" fill="#263238"/>
<path d="M59.7197 366.5C62.1577 368.759 65.0731 370.441 68.2497 371.42L71.9997 372.55C74.2894 373.267 76.681 373.605 79.0797 373.55L103.6 373C102.711 369.899 102.069 366.732 101.68 363.53L59.7197 366.5Z" fill="#263238"/>
<path d="M535.59 287.82C525.939 287.81 516.397 289.854 507.597 293.817C498.798 297.78 490.942 303.571 484.554 310.805C478.165 318.038 473.389 326.549 470.543 335.77C467.698 344.992 466.848 354.714 468.05 364.29L473.95 364.15C472.767 355.683 473.341 347.063 475.636 338.828C477.932 330.593 481.9 322.92 487.293 316.287C492.686 309.653 499.388 304.202 506.981 300.274C514.574 296.346 522.895 294.025 531.425 293.455C539.955 292.885 548.511 294.08 556.559 296.963C564.607 299.847 571.974 304.358 578.201 310.216C584.428 316.073 589.382 323.151 592.752 331.008C596.122 338.864 597.837 347.331 597.79 355.88C597.79 357.09 597.69 358.28 597.69 359.48C598.03 359.354 598.364 359.21 598.69 359.05L603.6 356.83V355.88C603.582 337.833 596.404 320.531 583.642 307.771C570.88 295.011 553.577 287.836 535.53 287.82H535.59Z" fill="#263238"/>
<path d="M163.42 287.82C153.014 287.816 142.745 290.199 133.404 294.785C124.063 299.371 115.898 306.038 109.537 314.273C103.175 322.508 98.7868 332.092 96.7088 342.288C94.6307 352.485 94.9184 363.022 97.5497 373.09L103.55 372.95C100.964 363.817 100.502 354.214 102.199 344.875C103.897 335.536 107.709 326.709 113.343 319.071C118.978 311.432 126.286 305.185 134.707 300.806C143.129 296.427 152.44 294.033 161.93 293.808C171.419 293.583 180.834 295.532 189.453 299.506C198.073 303.48 205.669 309.374 211.66 316.736C217.651 324.099 221.877 332.735 224.016 341.982C226.155 351.23 226.149 360.845 224 370.09L230 369.94C232.095 360.027 231.949 349.772 229.575 339.923C227.201 330.074 222.658 320.879 216.276 313.009C209.895 305.14 201.838 298.795 192.691 294.437C183.545 290.079 173.541 287.818 163.41 287.82H163.42Z" fill="#263238"/>
<path d="M222.65 235.48C222.055 236.011 221.605 236.685 221.343 237.439C221.081 238.192 221.015 239 221.152 239.786C221.289 240.572 221.625 241.31 222.126 241.93C222.628 242.55 223.28 243.032 224.02 243.33L250.02 250.61C252.31 251.26 254.708 251.44 257.07 251.14L449.67 227.28C454.488 226.6 458.882 224.155 462 220.42L487.29 191C488.148 189.986 488.675 188.733 488.8 187.41C489.15 184.06 487.04 181.04 484.11 180.66C438 174.53 379.67 169 342.85 173.46C294.59 179.35 246 215.63 222.65 235.48Z" fill="#00AFF5"/>
<path opacity="0.8" d="M223.52 235.48C222.925 236.011 222.475 236.685 222.213 237.439C221.95 238.192 221.885 239 222.022 239.786C222.159 240.572 222.494 241.31 222.996 241.93C223.498 242.55 224.15 243.032 224.89 243.33L250.89 250.61C253.18 251.259 255.578 251.439 257.94 251.14L446.24 238.24C450.93 237.64 458.17 229.03 463.29 222.03L488.15 191C489.015 189.989 489.546 188.735 489.67 187.41C490.01 184.06 487.91 181.04 484.98 180.66C438.85 174.55 380.54 168.99 343.72 173.48C295.45 179.35 246.87 215.63 223.52 235.48Z" fill="white"/>
<g opacity="0.3">
<path d="M349.34 253.84C348.759 253.623 348.285 253.189 348.018 252.629C347.751 252.069 347.713 251.428 347.91 250.84C348.179 250.093 348.664 249.444 349.303 248.974C349.943 248.504 350.707 248.234 351.5 248.2L374.42 247.2C374.729 247.183 375.038 247.227 375.33 247.33C375.925 247.547 376.412 247.99 376.683 248.562C376.954 249.135 376.989 249.792 376.78 250.39C376.508 251.138 376.019 251.787 375.376 252.256C374.733 252.724 373.965 252.99 373.17 253.02L350.25 254.02C349.938 254.021 349.628 253.96 349.34 253.84Z" fill="black"/>
</g>
<path d="M519.8 188.16C518.83 189.029 518.244 190.247 518.169 191.547C518.094 192.848 518.536 194.125 519.4 195.1L524.83 201.01C525.459 201.67 526.253 202.15 527.13 202.4L593.71 220.87C594.871 221.181 596.068 221.339 597.27 221.34H610.5C609.81 220.88 609.1 220.46 608.37 220.07L544.14 186.26C543.363 185.875 542.771 185.198 542.493 184.376C542.216 183.555 542.276 182.657 542.66 181.88L521.8 187.1C521.061 187.296 520.377 187.658 519.8 188.16Z" fill="#00AFF5"/>
<path d="M105.16 267.27L82.4399 264.79L69.4399 270.13C68.0853 270.682 66.8792 271.544 65.9187 272.646C64.9582 273.749 64.2701 275.063 63.9099 276.48C63.4789 278.144 63.7195 279.912 64.5799 281.4L64.8099 281.79C65.5229 283.019 66.5854 284.008 67.8622 284.631C69.139 285.255 70.5724 285.484 71.9799 285.29L85.0799 283.49C86.3428 283.291 87.5357 282.779 88.5499 282L103.66 270.53L105.16 267.27Z" fill="white"/>
<path d="M199.54 232.84L203.16 233.84C204.545 234.235 206.005 234.282 207.413 233.979C208.82 233.675 210.131 233.03 211.23 232.1C232.29 214.29 268.9 186.96 308.4 174.23C308.537 174.185 308.658 174.102 308.748 173.989C308.838 173.877 308.893 173.741 308.907 173.597C308.921 173.454 308.892 173.31 308.825 173.182C308.758 173.055 308.656 172.95 308.53 172.88L303.62 170.36C246.63 190.15 199.54 232.84 199.54 232.84Z" fill="#00AFF5"/>
<path opacity="0.8" d="M199.54 232.84L203.16 233.84C204.545 234.235 206.005 234.282 207.413 233.979C208.82 233.675 210.131 233.03 211.23 232.1C232.29 214.29 268.9 186.96 308.4 174.23C308.537 174.185 308.658 174.102 308.748 173.989C308.838 173.877 308.893 173.741 308.907 173.597C308.921 173.454 308.892 173.31 308.825 173.182C308.758 173.055 308.656 172.95 308.53 172.88L303.62 170.36C246.63 190.15 199.54 232.84 199.54 232.84Z" fill="white"/>
<path opacity="0.2" d="M415.46 256.89L224 270.58L227.61 294.2C228.712 301.434 231.392 308.337 235.46 314.42L251.46 338.34L414.88 316.24L492.15 256.89H415.46Z" fill="white"/>
<path d="M535.53 407.71C564.16 407.71 587.37 384.5 587.37 355.87C587.37 327.239 564.16 304.03 535.53 304.03C506.9 304.03 483.69 327.239 483.69 355.87C483.69 384.5 506.9 407.71 535.53 407.71Z" fill="#263238"/>
<path opacity="0.4" d="M535.53 387.65C553.082 387.65 567.31 373.421 567.31 355.87C567.31 338.318 553.082 324.09 535.53 324.09C517.978 324.09 503.75 338.318 503.75 355.87C503.75 373.421 517.978 387.65 535.53 387.65Z" fill="white"/>
<g opacity="0.3">
<path d="M535.54 327.29H535.53C534.127 327.29 532.99 328.427 532.99 329.83V346.12C532.99 347.523 534.127 348.66 535.53 348.66H535.54C536.943 348.66 538.08 347.523 538.08 346.12V329.83C538.08 328.427 536.943 327.29 535.54 327.29Z" fill="white"/>
</g>
<g opacity="0.3">
<path d="M535.54 363.1H535.53C534.127 363.1 532.99 364.237 532.99 365.64V381.93C532.99 383.333 534.127 384.47 535.53 384.47H535.54C536.943 384.47 538.08 383.333 538.08 381.93V365.64C538.08 364.237 536.943 363.1 535.54 363.1Z" fill="white"/>
</g>
<g opacity="0.3">
<path d="M545.24 353.21C544.655 353.542 543.962 353.629 543.313 353.451C542.665 353.273 542.113 352.844 541.78 352.26C541.446 351.678 541.357 350.987 541.531 350.338C541.705 349.69 542.129 349.137 542.71 348.8L556.81 340.61C557.398 340.273 558.095 340.183 558.749 340.359C559.403 340.535 559.961 340.964 560.3 341.55C560.631 342.136 560.717 342.829 560.541 343.478C560.366 344.127 559.941 344.681 559.36 345.02L545.27 353.2L545.24 353.21Z" fill="white"/>
</g>
<g opacity="0.3">
<path d="M514.23 371C513.647 371.334 512.956 371.423 512.308 371.249C511.66 371.074 511.107 370.651 510.77 370.07C510.603 369.782 510.495 369.464 510.452 369.134C510.408 368.804 510.43 368.468 510.517 368.147C510.603 367.825 510.752 367.524 510.955 367.26C511.158 366.997 511.411 366.776 511.7 366.61L525.8 358.42C526.088 358.251 526.406 358.141 526.737 358.096C527.068 358.051 527.404 358.072 527.726 358.158C528.049 358.243 528.351 358.392 528.616 358.595C528.881 358.797 529.103 359.051 529.27 359.34C529.439 359.629 529.549 359.948 529.594 360.279C529.639 360.611 529.618 360.948 529.533 361.271C529.447 361.594 529.299 361.898 529.096 362.163C528.893 362.429 528.639 362.652 528.35 362.82L514.24 371H514.23Z" fill="white"/>
</g>
<g opacity="0.3">
<path d="M556.81 371.1L542.71 362.92C542.125 362.579 541.699 362.021 541.525 361.367C541.35 360.713 541.442 360.017 541.78 359.43C542.124 358.849 542.683 358.426 543.336 358.254C543.989 358.082 544.684 358.174 545.27 358.51L559.36 366.7C559.941 367.039 560.366 367.593 560.542 368.242C560.717 368.892 560.631 369.584 560.3 370.17C560.132 370.461 559.909 370.715 559.642 370.919C559.376 371.123 559.072 371.273 558.748 371.359C558.424 371.446 558.086 371.467 557.753 371.423C557.421 371.378 557.1 371.269 556.81 371.1Z" fill="white"/>
</g>
<g opacity="0.3">
<path d="M529.27 352.27C528.931 352.852 528.376 353.276 527.725 353.448C527.075 353.621 526.382 353.528 525.8 353.19L511.7 345C511.411 344.834 511.158 344.613 510.955 344.35C510.752 344.086 510.603 343.785 510.517 343.463C510.43 343.142 510.408 342.806 510.452 342.476C510.495 342.146 510.603 341.828 510.77 341.54C511.108 340.959 511.663 340.535 512.313 340.36C512.963 340.186 513.656 340.276 514.24 340.61L528.35 348.8C528.638 348.968 528.89 349.19 529.092 349.456C529.294 349.721 529.442 350.024 529.526 350.346C529.611 350.668 529.631 351.004 529.585 351.335C529.539 351.665 529.429 351.983 529.26 352.27H529.27Z" fill="white"/>
</g>
<path d="M531.27 355.86C531.27 354.73 531.719 353.647 532.518 352.848C533.317 352.049 534.4 351.6 535.53 351.6C536.377 351.598 537.205 351.847 537.911 352.317C538.616 352.786 539.166 353.453 539.491 354.235C539.817 355.017 539.903 355.878 539.739 356.709C539.575 357.54 539.168 358.303 538.57 358.903C537.972 359.503 537.209 359.911 536.379 360.077C535.548 360.243 534.687 360.159 533.904 359.835C533.122 359.512 532.453 358.963 531.982 358.259C531.511 357.555 531.26 356.727 531.26 355.88L531.27 355.86Z" fill="#263238"/>
<path d="M163.42 407.72C192.051 407.72 215.26 384.51 215.26 355.88C215.26 327.25 192.051 304.04 163.42 304.04C134.79 304.04 111.58 327.25 111.58 355.88C111.58 384.51 134.79 407.72 163.42 407.72Z" fill="#263238"/>
<path opacity="0.4" d="M163.42 387.66C180.972 387.66 195.2 373.432 195.2 355.88C195.2 338.328 180.972 324.1 163.42 324.1C145.869 324.1 131.64 338.328 131.64 355.88C131.64 373.432 145.869 387.66 163.42 387.66Z" fill="white"/>
<g opacity="0.3">
<path d="M163.42 327.29H163.41C162.007 327.29 160.87 328.427 160.87 329.83V346.12C160.87 347.523 162.007 348.66 163.41 348.66H163.42C164.823 348.66 165.96 347.523 165.96 346.12V329.83C165.96 328.427 164.823 327.29 163.42 327.29Z" fill="white"/>
</g>
<g opacity="0.3">
<path d="M163.42 363.1H163.41C162.007 363.1 160.87 364.237 160.87 365.64V381.93C160.87 383.333 162.007 384.47 163.41 384.47H163.42C164.823 384.47 165.96 383.333 165.96 381.93V365.64C165.96 364.237 164.823 363.1 163.42 363.1Z" fill="white"/>
</g>
<g opacity="0.3">
<path d="M173.11 353.21C172.823 353.374 172.506 353.479 172.178 353.52C171.849 353.561 171.516 353.536 171.198 353.448C170.879 353.36 170.581 353.209 170.32 353.006C170.06 352.802 169.842 352.548 169.68 352.26C169.511 351.973 169.401 351.655 169.355 351.325C169.309 350.994 169.329 350.658 169.414 350.336C169.498 350.013 169.646 349.711 169.848 349.446C170.05 349.18 170.302 348.958 170.59 348.79L184.71 340.6C185 340.434 185.319 340.326 185.65 340.283C185.981 340.24 186.318 340.263 186.64 340.351C186.962 340.438 187.264 340.588 187.529 340.792C187.793 340.996 188.014 341.25 188.18 341.54C188.347 341.83 188.454 342.149 188.497 342.48C188.54 342.811 188.517 343.148 188.43 343.47C188.342 343.792 188.192 344.094 187.988 344.358C187.784 344.623 187.53 344.844 187.24 345.01L173.15 353.19L173.11 353.21Z" fill="white"/>
</g>
<g opacity="0.3">
<path d="M138.65 370.11C138.483 369.822 138.375 369.504 138.332 369.174C138.288 368.844 138.31 368.509 138.397 368.187C138.483 367.866 138.632 367.565 138.835 367.301C139.038 367.037 139.291 366.816 139.58 366.65L153.68 358.46C153.969 358.291 154.289 358.181 154.621 358.136C154.954 358.09 155.291 358.111 155.616 358.197C155.94 358.282 156.244 358.431 156.51 358.634C156.777 358.837 157.001 359.09 157.17 359.38C157.506 359.966 157.596 360.662 157.42 361.315C157.244 361.967 156.816 362.523 156.23 362.86L142.14 371C141.558 371.341 140.865 371.439 140.212 371.273C139.558 371.106 138.997 370.688 138.65 370.11Z" fill="white"/>
</g>
<g opacity="0.3">
<path d="M188.17 370.18C188.004 370.469 187.783 370.722 187.519 370.924C187.255 371.127 186.953 371.276 186.632 371.361C186.31 371.447 185.974 371.468 185.645 371.423C185.315 371.378 184.997 371.268 184.71 371.1L170.59 362.92C170.008 362.576 169.586 362.016 169.416 361.362C169.245 360.709 169.34 360.014 169.68 359.43C170.018 358.848 170.574 358.424 171.224 358.252C171.875 358.079 172.568 358.172 173.15 358.51L187.24 366.7C187.821 367.039 188.245 367.593 188.42 368.243C188.594 368.893 188.504 369.586 188.17 370.17V370.18Z" fill="white"/>
</g>
<g opacity="0.3">
<path d="M157.15 352.29C156.981 352.577 156.758 352.829 156.492 353.03C156.227 353.23 155.924 353.377 155.602 353.461C155.279 353.544 154.944 353.563 154.614 353.517C154.284 353.47 153.967 353.359 153.68 353.19L139.58 345C139.291 344.834 139.038 344.613 138.835 344.349C138.632 344.086 138.483 343.784 138.397 343.463C138.31 343.142 138.288 342.806 138.332 342.476C138.375 342.146 138.483 341.828 138.65 341.54C138.989 340.953 139.546 340.525 140.201 340.349C140.855 340.173 141.552 340.263 142.14 340.6L156.23 348.79C156.811 349.129 157.235 349.683 157.41 350.333C157.584 350.983 157.494 351.676 157.16 352.26L157.15 352.29Z" fill="white"/>
</g>
<path d="M163.42 351.6C164.267 351.598 165.095 351.847 165.8 352.317C166.506 352.786 167.056 353.453 167.381 354.235C167.707 355.017 167.793 355.878 167.629 356.709C167.465 357.54 167.058 358.303 166.46 358.903C165.862 359.503 165.099 359.911 164.269 360.077C163.438 360.243 162.577 360.159 161.794 359.835C161.012 359.512 160.343 358.963 159.872 358.259C159.401 357.555 159.15 356.727 159.15 355.88C159.15 354.747 159.599 353.66 160.4 352.857C161.2 352.055 162.287 351.603 163.42 351.6Z" fill="#263238"/>
<path opacity="0.3" d="M615.52 258.09C615.931 257.963 616.312 257.755 616.642 257.48C616.973 257.205 617.246 256.867 617.445 256.486C617.645 256.105 617.768 255.689 617.806 255.261C617.845 254.832 617.798 254.401 617.67 253.99C617.07 243.07 614.75 233.36 608.06 226.68C607.842 225.967 607.387 225.35 606.771 224.93C606.154 224.51 605.413 224.313 604.67 224.37L565.17 228.1C564.48 228.17 563.831 228.461 563.32 228.93C563 229.218 562.74 229.566 562.556 229.954C562.371 230.342 562.265 230.763 562.244 231.192C562.222 231.622 562.286 232.051 562.431 232.456C562.576 232.86 562.8 233.232 563.09 233.55L574.4 245.75C574.793 246.171 575.289 246.481 575.84 246.65L613.66 258.11C614.269 258.279 614.914 258.272 615.52 258.09Z" fill="black"/>
<path d="M221.19 238C220.905 239.083 221.038 240.233 221.563 241.223C222.087 242.212 222.964 242.968 224.02 243.34L250.02 250.62C252.364 251.339 254.79 251.756 257.24 251.86L265.42 251.31L257.7 209.64C239.89 221.34 238.7 221.88 222.7 235.5C221.93 236.14 221.398 237.021 221.19 238Z" fill="#263238"/>
<path d="M390.41 172.12L374.09 243.28L395.44 241.74L405.18 172.74C400.193 172.487 395.27 172.28 390.41 172.12Z" fill="#263238"/>
<path d="M458.14 228.43L488.14 190.98C489.025 189.959 489.567 188.686 489.69 187.34C490 184 487.9 181 485 180.6C478.86 179.77 472.32 178.97 465.79 178.18" fill="#263238"/>
<path d="M244.81 245.2C243.577 245.214 242.353 244.986 241.208 244.527C240.063 244.069 239.02 243.389 238.138 242.528C237.256 241.666 236.552 240.639 236.067 239.505C235.581 238.371 235.324 237.153 235.31 235.92C235.285 233.777 235.992 231.689 237.314 230.002C238.636 228.315 240.493 227.129 242.58 226.64L255.1 223.71L258.29 244.71L245.06 245.22L244.81 245.2Z" fill="#00AFF5"/>
<path opacity="0.3" d="M254.62 244.83L258.29 244.69L255.1 223.71L251.53 224.55L254.62 244.83Z" fill="black"/>
<path opacity="0.6" d="M378.69 334.8H378.64C378.608 334.794 378.578 334.782 378.551 334.764C378.524 334.746 378.501 334.722 378.483 334.695C378.465 334.668 378.453 334.638 378.448 334.606C378.442 334.574 378.443 334.541 378.45 334.51C378.58 333.86 392.27 269.62 394.02 260.87C394.69 257.51 394.94 251.09 394.74 241.76C394.74 241.693 394.766 241.63 394.813 241.583C394.86 241.536 394.924 241.51 394.99 241.51C395.055 241.51 395.117 241.535 395.163 241.579C395.21 241.624 395.237 241.685 395.24 241.75C395.44 251.11 395.19 257.58 394.51 260.97C392.76 269.72 379.07 333.97 378.93 334.61C378.918 334.664 378.888 334.713 378.844 334.748C378.8 334.783 378.746 334.801 378.69 334.8Z" fill="black"/>
<path opacity="0.6" d="M255.37 344.44C255.329 344.44 255.288 344.43 255.252 344.41C255.215 344.391 255.184 344.364 255.16 344.33C254.99 344.07 237.33 317.93 231.26 307C225 295.75 221 241.84 220.82 239.55C220.817 239.484 220.839 239.42 220.882 239.37C220.925 239.32 220.985 239.288 221.05 239.28C221.083 239.277 221.116 239.281 221.147 239.291C221.179 239.301 221.208 239.318 221.233 239.339C221.258 239.36 221.279 239.386 221.294 239.416C221.309 239.445 221.318 239.477 221.32 239.51C221.32 240.07 225.52 295.6 231.7 306.76C237.75 317.67 255.4 343.76 255.58 344.05C255.599 344.078 255.612 344.109 255.618 344.141C255.625 344.174 255.625 344.207 255.619 344.24C255.612 344.272 255.599 344.303 255.58 344.331C255.562 344.358 255.538 344.382 255.51 344.4C255.467 344.424 255.419 344.437 255.37 344.44Z" fill="black"/>
<path opacity="0.6" d="M82.4401 265C82.3831 264.998 82.3284 264.977 82.2852 264.94C82.2419 264.903 82.2125 264.852 82.202 264.796C82.1915 264.74 82.2005 264.682 82.2274 264.632C82.2543 264.582 82.2976 264.542 82.3501 264.52C95.8901 258.98 139.35 248.52 149.49 246.91C162.32 244.85 206.16 234.03 206.6 233.91C206.632 233.903 206.666 233.902 206.698 233.907C206.731 233.913 206.762 233.925 206.79 233.943C206.818 233.96 206.842 233.983 206.861 234.01C206.88 234.037 206.893 234.068 206.9 234.1C206.909 234.132 206.911 234.165 206.907 234.197C206.903 234.23 206.892 234.261 206.875 234.289C206.858 234.317 206.836 234.342 206.809 234.361C206.782 234.38 206.752 234.393 206.72 234.4C206.28 234.51 162.42 245.33 149.56 247.4C139.67 248.99 95.7401 259.58 82.5601 264.98C82.5231 264.999 82.4812 265.006 82.4401 265Z" fill="black"/>
<path opacity="0.8" d="M519.8 188.16C518.83 189.029 518.244 190.247 518.169 191.547C518.094 192.848 518.536 194.125 519.4 195.1L524.83 201.01C525.459 201.67 526.253 202.15 527.13 202.4L593.71 220.87C594.871 221.181 596.068 221.339 597.27 221.34H610.5C609.81 220.88 609.1 220.46 608.37 220.07L544.14 186.26C543.363 185.875 542.771 185.198 542.493 184.376C542.216 183.555 542.276 182.657 542.66 181.88L521.8 187.1C521.061 187.296 520.377 187.658 519.8 188.16Z" fill="white"/>
<path d="M269.71 230.72C269.11 231.08 262.04 238.39 262.04 238.39L263.42 247.45L272.31 238.27L269.71 230.72Z" fill="#263238"/>
<path d="M280.36 249.61C279.609 249.981 278.742 250.038 277.949 249.77C277.156 249.502 276.502 248.93 276.13 248.18L262 219.6C261.817 219.229 261.708 218.826 261.681 218.413C261.654 218 261.708 217.586 261.841 217.194C261.974 216.802 262.182 216.44 262.455 216.129C262.728 215.818 263.059 215.563 263.43 215.38C263.801 215.195 264.206 215.086 264.62 215.058C265.034 215.029 265.449 215.083 265.842 215.216C266.235 215.349 266.598 215.558 266.91 215.832C267.222 216.105 267.477 216.438 267.66 216.81L281.76 245.39C282.132 246.136 282.194 246.998 281.932 247.789C281.669 248.58 281.104 249.235 280.36 249.61Z" fill="#263238"/>
<path d="M295.75 215.21C295.75 215.21 302.75 243.13 306.84 244.21C314.28 246.12 339.84 243.98 339.34 243.16L338.26 230.32C338.26 230.32 312.49 234.58 312.69 234.13L303 212.4L295.75 215.21Z" fill="#EBB373"/>
<path d="M302.18 214.09C302.18 214.09 304.48 211.95 304.54 209.35C304.6 206.75 305.35 204.7 305.26 202.77C305.17 200.84 303.56 202.89 302.92 204.15C302.28 205.41 301.54 206.85 300.67 206.21C299.8 205.57 296 197.11 294.67 196.37C293.34 195.63 293.55 197.19 293.55 197.19C293.55 197.19 292.55 195.19 291.66 195.33C291.42 195.33 290.94 195.86 291.25 196.85C291.92 199.09 293.58 203.72 293.58 203.72C293.49 203.45 291.03 197.89 290.58 197.1C289.95 196.1 289.14 195.91 288.58 196.29C287.75 196.83 290.58 203.83 290.48 204.21C290.48 204.21 288.99 200.13 287.73 199.93C286.47 199.73 287.26 202.36 288.4 204.54C289.4 206.54 290.97 210.73 292.23 212.66C293.78 215.03 295.35 216.28 297.98 215.88C299.511 215.654 300.957 215.038 302.18 214.09Z" fill="#EBB373"/>
<path opacity="0.3" d="M295.75 202.59C295.724 202.592 295.698 202.585 295.677 202.57C295.655 202.556 295.639 202.535 295.63 202.51C295.04 200.81 294.37 199.12 293.63 197.51C293.622 197.495 293.617 197.478 293.616 197.46C293.616 197.443 293.619 197.425 293.625 197.409C293.632 197.393 293.642 197.378 293.655 197.366C293.668 197.354 293.683 197.346 293.7 197.34C293.714 197.334 293.73 197.33 293.746 197.329C293.762 197.329 293.778 197.331 293.792 197.337C293.807 197.342 293.821 197.351 293.833 197.362C293.844 197.373 293.853 197.386 293.86 197.4C294.6 199.05 295.28 200.74 295.86 202.45C295.866 202.465 295.87 202.481 295.869 202.498C295.869 202.514 295.866 202.53 295.859 202.545C295.853 202.56 295.843 202.574 295.831 202.585C295.819 202.596 295.805 202.605 295.79 202.61L295.75 202.59Z" fill="black"/>
<path opacity="0.3" d="M291 205.94C290.984 205.947 290.967 205.95 290.95 205.95C290.933 205.95 290.916 205.947 290.9 205.94C290.879 205.915 290.867 205.883 290.867 205.85C290.867 205.817 290.879 205.785 290.9 205.76C292.737 204.258 294.971 203.324 297.33 203.07C297.347 203.069 297.364 203.071 297.38 203.076C297.397 203.081 297.412 203.09 297.425 203.101C297.438 203.112 297.449 203.126 297.456 203.141C297.464 203.156 297.469 203.173 297.47 203.19C297.471 203.206 297.47 203.222 297.465 203.237C297.46 203.252 297.452 203.266 297.442 203.278C297.432 203.29 297.419 203.3 297.405 203.307C297.391 203.315 297.376 203.319 297.36 203.32C295.047 203.566 292.857 204.483 291.06 205.96L291 205.94Z" fill="black"/>
<path opacity="0.3" d="M298.51 212.37C298.484 212.37 298.459 212.362 298.438 212.348C298.417 212.334 298.4 212.313 298.39 212.29C298.02 211.372 297.982 210.353 298.281 209.41C298.58 208.467 299.199 207.657 300.03 207.12C300.041 207.109 300.054 207.1 300.069 207.094C300.084 207.088 300.099 207.084 300.115 207.084C300.131 207.084 300.146 207.088 300.161 207.094C300.176 207.1 300.189 207.109 300.2 207.12C300.211 207.131 300.22 207.144 300.226 207.159C300.232 207.173 300.235 207.189 300.235 207.205C300.235 207.221 300.232 207.236 300.226 207.251C300.22 207.265 300.211 207.279 300.2 207.29C299.418 207.794 298.837 208.556 298.555 209.443C298.274 210.33 298.311 211.287 298.66 212.15C298.674 212.18 298.675 212.215 298.664 212.247C298.653 212.279 298.63 212.305 298.6 212.32L298.51 212.37Z" fill="black"/>
<path d="M368.74 228.36C364.06 222.18 356.63 222.8 351.8 223.65L342.24 225.22C341.934 225.267 341.633 225.341 341.34 225.44L339.16 226.11L318.69 232.67L323.63 245.77L330.32 244.95L329.2 246.76L335.76 246.34L371.57 244.47V237.21C371.613 234.031 370.619 230.924 368.74 228.36Z" fill="#263238"/>
<path d="M366.8 238.67C366.8 238.67 362.31 268.78 359.13 271.97C351.55 279.59 323.48 258.63 323.48 258.63L324.35 250.54L348.59 260.54L353.13 235L366.8 238.67Z" fill="#EBB373"/>
<path d="M370.49 236.62C370.27 237.36 368.34 258.37 368.34 258.37L347.78 256.45C347.78 256.45 348.85 250.62 350.4 240.45C352.03 229.82 352.97 224.45 358.24 223.59C368.21 221.92 370.49 236.62 370.49 236.62Z" fill="#263238"/>
<path d="M363.6 189.05C366.7 194.49 367.78 197.74 368.06 202.96C368.39 209.05 368.11 214.43 366.75 215.96C364.97 217.96 345.69 219.96 334.88 219.49C334.49 219.49 334.17 216.05 334.17 216.05C334.17 216.05 332.64 219.4 332.17 219.37C329.22 219.24 327.33 219.13 327.33 219.13C327.33 219.13 329.78 214.13 332.77 195.95C334.23 187.09 343.15 183.55 348.4 182.88C357.12 181.8 363.6 189.05 363.6 189.05Z" fill="#263238"/>
<path d="M337.91 206.17C335.08 201.28 332.27 188.1 344.06 184.04C358.77 178.96 365.35 188.34 366.62 197.64C367.89 206.94 362.62 213.96 352.92 213.26C343.22 212.56 339.86 209.56 337.91 206.17Z" fill="#263238"/>
<path d="M358.33 206.83L349.64 214.83L348 216.61C348.485 217.829 348.82 219.101 349 220.4C349.124 221.771 348.736 223.139 347.91 224.24L345.96 228.68C350.31 225.27 360.22 223.44 360.22 223.44C358.567 218.068 357.927 212.436 358.33 206.83Z" fill="#EBB373"/>
<path opacity="0.2" d="M349 220.88C351.34 219.63 354 217.4 353.78 214.7C353.727 213.71 353.555 212.729 353.27 211.78L348.34 217.7C348.673 218.733 348.894 219.799 349 220.88Z" fill="black"/>
<path d="M361.1 198C359.92 206.5 359.6 210.11 354.99 214.38C348.06 220.8 337.99 218.06 336.62 209.53C335.39 201.84 337.52 189.24 346.06 186.05C347.87 185.305 349.847 185.057 351.786 185.332C353.724 185.606 355.554 186.393 357.087 187.611C358.62 188.829 359.8 190.434 360.506 192.26C361.211 194.086 361.416 196.068 361.1 198Z" fill="#EBB373"/>
<path d="M350.26 200.55C350.17 201.41 349.61 202.09 349.01 202.07C348.41 202.05 348.01 201.35 348.07 200.49C348.13 199.63 348.72 198.95 349.32 198.97C349.92 198.99 350.35 199.69 350.26 200.55Z" fill="#263238"/>
<path d="M341.4 200C341.31 200.82 340.76 201.47 340.17 201.46C339.58 201.45 339.17 200.76 339.25 199.95C339.33 199.14 339.89 198.48 340.48 198.49C341.07 198.5 341.48 199.16 341.4 200Z" fill="#263238"/>
<path d="M351.61 197.45C351.553 197.462 351.493 197.462 351.436 197.448C351.379 197.434 351.326 197.407 351.28 197.37C350.85 197.034 350.349 196.802 349.815 196.691C349.281 196.58 348.728 196.594 348.2 196.73C348.148 196.75 348.092 196.76 348.036 196.758C347.979 196.755 347.924 196.742 347.874 196.717C347.823 196.693 347.778 196.658 347.741 196.616C347.704 196.573 347.677 196.524 347.66 196.47C347.635 196.356 347.654 196.237 347.714 196.137C347.773 196.037 347.868 195.963 347.98 195.93C348.645 195.743 349.344 195.716 350.022 195.849C350.7 195.983 351.336 196.275 351.88 196.7C351.922 196.737 351.956 196.782 351.98 196.833C352.003 196.884 352.015 196.939 352.015 196.995C352.015 197.051 352.003 197.106 351.98 197.157C351.956 197.208 351.922 197.253 351.88 197.29C351.811 197.373 351.716 197.429 351.61 197.45Z" fill="#263238"/>
<path d="M338.57 195.7C338.479 195.651 338.41 195.569 338.38 195.47C338.353 195.362 338.369 195.249 338.425 195.153C338.481 195.057 338.573 194.988 338.68 194.96C339.323 194.75 340.006 194.692 340.675 194.789C341.345 194.886 341.983 195.136 342.54 195.52C342.58 195.555 342.613 195.599 342.635 195.648C342.657 195.698 342.669 195.751 342.669 195.805C342.669 195.859 342.657 195.912 342.635 195.961C342.613 196.01 342.58 196.054 342.54 196.09C342.456 196.164 342.347 196.205 342.235 196.205C342.123 196.205 342.014 196.164 341.93 196.09C341.484 195.795 340.977 195.605 340.447 195.534C339.917 195.463 339.378 195.513 338.87 195.68C338.775 195.722 338.669 195.729 338.57 195.7Z" fill="#263238"/>
<path d="M354.32 190C351.48 192.72 352.32 203.55 359.88 205.31C368.75 203.69 362.82 181.91 354.32 190Z" fill="#263238"/>
<path d="M343.28 208.05C343.816 209.086 344.277 210.159 344.66 211.26L345.27 211.16C348.01 210.65 349.12 209.5 349.51 208.39C349.69 207.842 349.738 207.26 349.65 206.69C349.607 206.366 349.519 206.05 349.39 205.75C348.1 206.89 345.57 207.56 344.21 207.86C343.64 208 343.28 208.05 343.28 208.05Z" fill="#263238"/>
<path d="M344.21 207.86L344.64 208.8C347.23 208.31 348.98 207.62 349.64 206.69C349.596 206.366 349.509 206.05 349.38 205.75C348.1 206.89 345.57 207.56 344.21 207.86Z" fill="white"/>
<path d="M345.27 211.16C348.01 210.65 349.12 209.5 349.51 208.39C348.472 208.605 347.48 209.001 346.58 209.56C345.985 209.941 345.526 210.502 345.27 211.16Z" fill="#DC5753"/>
<path d="M343.82 199.49C342.876 201.492 341.684 203.367 340.27 205.07C341.27 206.17 343.27 205.71 343.27 205.71L343.82 199.49Z" fill="#E4873E"/>
<path d="M347.64 198.48L349.58 199.04C348.64 200 347.64 198.48 347.64 198.48Z" fill="#263238"/>
<path d="M338.9 198L340.83 198.56C339.9 199.5 338.9 198 338.9 198Z" fill="#263238"/>
<path d="M346.21 184.17C342.78 185.17 338.94 190.82 338.21 193.04C342.96 194.04 356.08 190.15 356.08 190.15C356.08 190.15 364.59 192.93 360.42 188.36C356.25 183.79 346.21 184.17 346.21 184.17Z" fill="#263238"/>
<path d="M363.36 205C362.377 206.527 360.832 207.605 359.06 208C356.78 208.46 355.78 204.77 356.65 202.55C357.058 201.546 357.812 200.722 358.775 200.227C359.738 199.732 360.847 199.598 361.9 199.85C364 200.44 364.6 203.08 363.36 205Z" fill="#EBB373"/>
<path d="M323.76 218.32L323.5 217.89C326.7 215.97 329.75 208.5 331.05 205.31C332.352 201.752 333.267 198.064 333.78 194.31L334.28 194.4C333.752 198.175 332.824 201.882 331.51 205.46C330.08 209 327.1 216.31 323.76 218.32Z" fill="#263238"/>
<path d="M358.39 207.8C358.375 208.115 358.453 208.426 358.615 208.696C358.776 208.966 359.015 209.182 359.299 209.316C359.584 209.451 359.902 209.498 360.214 209.451C360.525 209.404 360.815 209.267 361.048 209.055C361.281 208.843 361.446 208.567 361.521 208.261C361.597 207.956 361.581 207.635 361.474 207.339C361.367 207.043 361.175 206.785 360.921 206.598C360.668 206.412 360.365 206.304 360.05 206.29C359.842 206.279 359.633 206.31 359.437 206.38C359.24 206.45 359.06 206.559 358.905 206.699C358.751 206.84 358.626 207.009 358.538 207.198C358.449 207.387 358.399 207.592 358.39 207.8Z" fill="#00AFF5"/>
<path opacity="0.1" d="M358.28 205C358.247 204.998 358.215 204.989 358.186 204.974C358.156 204.959 358.13 204.938 358.109 204.913C358.087 204.888 358.071 204.859 358.061 204.827C358.051 204.796 358.047 204.763 358.05 204.73C358.086 204.301 358.218 203.886 358.438 203.515C358.657 203.145 358.958 202.829 359.317 202.591C359.675 202.354 360.084 202.2 360.51 202.143C360.937 202.086 361.371 202.126 361.78 202.26C361.843 202.283 361.894 202.329 361.924 202.388C361.954 202.448 361.959 202.516 361.94 202.58C361.93 202.612 361.913 202.641 361.892 202.667C361.87 202.692 361.843 202.713 361.814 202.728C361.784 202.742 361.751 202.751 361.718 202.753C361.685 202.756 361.651 202.751 361.62 202.74C361.286 202.629 360.931 202.594 360.581 202.639C360.232 202.684 359.897 202.807 359.602 202.999C359.307 203.192 359.059 203.448 358.877 203.749C358.695 204.051 358.583 204.39 358.55 204.74C358.551 204.776 358.545 204.811 358.532 204.844C358.519 204.877 358.499 204.906 358.474 204.931C358.448 204.956 358.418 204.975 358.384 204.986C358.351 204.998 358.315 205.003 358.28 205Z" fill="black"/>
<path d="M333.89 256.14L324.35 250.54L321.75 247.21C321.75 247.21 319.07 244.05 316.91 243.84C315.825 243.805 314.749 244.031 313.77 244.5C313.77 244.5 311.27 246.08 312.77 248.5C312.77 248.5 310.3 249.77 311.98 252.5C311.98 252.5 309.61 252.55 311.64 255.03C312.422 255.968 313.384 256.74 314.47 257.3C315.555 257.86 316.742 258.196 317.96 258.29C319.367 258.423 320.787 258.297 322.15 257.92L332.68 264.84L333.89 256.14Z" fill="#EBB373"/>
<path d="M349.58 245.65L351.3 234.86L346.05 245.77L349.58 245.65Z" fill="black"/>
<path d="M330.32 244.95L334.61 236.24L326.37 245.44L330.32 244.95Z" fill="black"/>
</svg>
